<?xml version="1.0" encoding="UTF-8" standalone="no"?>
<!-- Created with Inkscape (http://www.inkscape.org/) -->

<svg
   width="253.93169mm"
   height="75.670868mm"
   viewBox="0 0 253.93169 75.670868"
   version="1.1"
   id="svg4868"
   xmlns="http://www.w3.org/2000/svg"
   xmlns:svg="http://www.w3.org/2000/svg">
  <defs
     id="defs4865" />
  <g
     id="layer2"
     transform="translate(23.473975,-96.909528)">
    <path
       fill="#a5bbca"
       opacity="1"
       stroke="none"
       d="m 223.54917,128.69948 c 0.0478,-0.006 0.0955,-0.0122 0.28621,0.0429 2.30275,0.10135 4.46252,0.14153 6.6223,0.18171 0,3.97428 0,7.94856 0,12.04683 -1.62821,0.0969 -3.26212,0.13971 -4.88176,0.008 -0.62498,-0.051 -1.38157,-0.34584 -1.79855,-0.79133 -2.97921,-3.18312 -5.88544,-6.43451 -8.81708,-9.66222 -0.38219,-0.42081 -0.77673,-0.83044 -1.4231,-1.52005 0,2.03892 0,3.76778 -0.11361,5.60724 -1.02833,-0.37394 -1.52504,-1.04159 -1.54876,-2.16765 -0.01,-0.46174 -0.57159,-1.14774 -1.03361,-1.31584 -1.01812,-0.37046 -2.13243,-0.47656 -3.18832,-0.68673 -0.21065,0.25263 -0.46564,0.55846 -0.72063,0.86427 -0.0125,-0.72482 -0.0251,-1.44964 0.11464,-2.30024 5.18462,-0.11623 10.21701,-0.10169 15.24938,-0.10632 0.41769,-2.6e-4 0.83527,-0.13034 1.25289,-0.2001 z"
       id="path4"
       style="stroke-width:0.264583" />
    <path
       fill="#1d3149"
       opacity="1"
       stroke="none"
       d="m 31.769955,166.78674 c -2.79947,1.38436 -5.54492,2.89774 -8.41989,4.10182 -1.57493,0.65961 -3.37001,0.79083 -5.06171,1.17818 -0.19095,0.0437 -0.35525,0.20376 -0.54379,0.41175 -0.55207,0.10188 -1.09226,0.10188 -1.76484,0.0523 -0.20948,-0.0165 -0.2866,0.0165 -0.36371,0.0496 -2.82775,0 -5.6555004,0 -8.6072504,0 -1.13956,-0.34697 -2.13062,-0.83659 -3.17497,-1.01602 -4.33667998,-0.74507 -8.09838,-2.76788 -11.68552,-5.16095 -1.80138,-1.20174 -3.4882196,-2.5752 -5.2268496,-3.871 -0.0438,-0.19517 -0.0876,-0.39034 -0.13139,-0.5855 0.38145,-0.22236 0.76291,-0.44473 1.30327,-0.66842 4.2000896,3.702 8.7460896,6.5433 14.1249596,8.16331 0.51844,0.13201 0.94878,0.2026 1.36691,0.31758 4.83265,1.32894 9.7155304,1.6932 14.6511404,0.69051 2.95295,-0.5999 5.90028,-1.24947 8.60252,-2.89404 0.77161,-0.28644 1.47741,-0.51221 2.11046,-0.86759 1.30821,-0.73437 2.57767,-1.53779 3.8529,-2.21769 -0.49809,0.76773 -1.37932,1.25933 -1.03224,2.31618 z"
       id="path6"
       style="stroke-width:0.264583" />
    <path
       fill="#fdfefe"
       opacity="1"
       stroke="none"
       d="m 230.45768,128.80012 c -2.15978,0.0838 -4.31955,0.0436 -6.55401,-0.0811 -0.0747,-3.67881 -0.0747,-7.27303 -0.0747,-10.9812 2.10683,0 4.11445,0 6.26714,0.0959 0.21722,0.14478 0.28939,0.19363 0.36154,0.24248 0,3.5333 0,7.06661 0,10.72392 z"
       id="path8"
       style="stroke-width:0.264583" />
    <path
       fill="#99b1bf"
       opacity="1"
       stroke="none"
       d="m 17.354735,96.909539 c 0.34271,0.177875 0.55337,0.477498 0.80412,0.515988 8.30601,1.274999 15.28269,5.057843 21.0708,11.104723 1.10532,1.15473 2.22121,2.29935 3.58901,3.71428 -1.8321,0 -3.26604,0 -4.79401,-0.0919 0.1982,-0.41611 0.49041,-0.74034 0.97383,-1.27675 -1.60867,-1.44116 -3.12341,-2.95508 -4.79721,-4.2659 -3.80329,-2.9785 -7.99953,-5.21167 -12.86925,-6.27373 -2.8045,-0.493698 -5.50569,-0.964659 -8.36184,-1.462637 0,-0.569953 0,-1.267023 0,-1.964093 0.71438,0 1.42875,0 2.29281,0.08455 0.30565,0.02818 0.46163,-0.02818 0.61761,-0.08455 0.45358,0 0.90718,0 1.47413,0 z"
       id="path10"
       style="stroke-width:0.264583" />
    <path
       fill="#95adbc"
       opacity="1"
       stroke="none"
       d="m -13.752815,110.37664 c -0.25966,-0.2292 -0.49952,-0.4872 -0.78285,-0.68195 -0.71657,-0.49254 -0.58031,-0.93214 -0.0275,-1.47573 5.6147496,-5.52114 12.2388996,-9.13802 19.9826096,-10.673192 0.30508,-0.06048 0.57399,-0.303421 0.76567,-0.548787 0.0235,-0.08744 0.1411,-0.08744 0.27583,-0.0082 0.17707,0.145937 0.33701,0.212648 0.49695,0.279358 -0.0244,-0.119527 -0.0487,-0.239055 -0.0731,-0.358584 1.5931,0 3.1861904,0 4.8717604,0.102375 -0.12176,0.765396 -0.14501,1.70369 -0.60015,2.019473 -0.52987,0.367621 -1.4395904,0.173315 -2.1813004,0.252504 -3.24604,0.346564 -6.43877,0.918363 -9.52355998,2.302093 -0.33734,0.0919 -0.59297002,0.15892 -0.83603002,0.25713 -4.75842,1.9226 -8.8379896,4.83031 -12.3682996,8.53353 z"
       id="path12"
       style="stroke-width:0.264583" />
    <path
       fill="#273e57"
       opacity="1"
       stroke="none"
       d="m -0.46092538,101.5757 c 2.99722998,-1.37345 6.18995998,-1.945246 9.43599998,-2.291809 0.74171,-0.07919 1.6514304,0.115116 2.1813004,-0.252505 0.45514,-0.315783 0.47839,-1.254077 0.72405,-2.019473 0.31365,-0.102374 0.59588,-0.102374 0.98393,-0.102374 0.10583,0.69707 0.10583,1.39414 0.10583,1.964093 2.85615,0.497978 5.55734,0.968939 8.35242,1.553778 -0.0488,0.44122 -0.19148,0.76855 -0.23737,0.87383 0.46999,0.57041 0.81238,0.98596 1.15477,1.4015 -1.966,-0.3516 -3.92303,-0.76796 -5.89979,-1.04197 -4.82673,-0.66907 -9.5741204,-0.3024 -14.2074104,1.27345 -0.36967,0.12573 -0.75589,0.20282 -1.23634998,0.20002 0.0284,-1.06104 -0.73245,-1.25121 -1.35738,-1.55854 z"
       id="path14"
       style="stroke-width:0.264583" />
    <path
       fill="#010101"
       opacity="1"
       stroke="none"
       d="m 15.792405,96.909539 c -0.0678,0.05637 -0.22376,0.112735 -0.41035,0.08455 0.087,-0.08455 0.20457,-0.08455 0.41035,-0.08455 z"
       id="path18"
       style="stroke-width:0.264583" />
    <path
       fill="#010101"
       opacity="1"
       stroke="none"
       d="m 6.8186246,96.909539 c 0.0905,0.119528 0.11489,0.239056 0.13926,0.358584 -0.15994,-0.06671 -0.31988,-0.133422 -0.40876,-0.279359 0.0711,-0.07923 0.20335,-0.07923 0.2695,-0.07923 z"
       id="path20"
       style="stroke-width:0.264583" />
    <path
       fill="#010101"
       opacity="1"
       stroke="none"
       d="m 15.682165,172.58037 c 0.011,-0.0331 0.0881,-0.0661 0.18181,-0.0496 0.0166,0.0496 -0.11567,0.0496 -0.18181,0.0496 z"
       id="path22"
       style="stroke-width:0.264583" />
    <path
       fill="#dfe7ed"
       opacity="1"
       stroke="none"
       d="m 230.45768,118.01006 c -0.0722,0.0173 -0.14432,-0.0315 -0.24171,-0.1426 0.0197,-0.0793 0.0646,-0.0964 0.17563,-0.0847 0.0661,0.0289 0.0661,0.16116 0.0661,0.22731 z"
       id="path24"
       style="stroke-width:0.264583" />
    <path
       fill="#fcfdfd"
       opacity="1"
       stroke="none"
       d="m 144.78061,128.89677 c -0.0132,-3.52513 -0.0265,-7.05026 0.0367,-10.72414 0.13866,-0.20366 0.17349,-0.27246 0.1809,-0.35513 5.09039,0.0106 10.19486,-0.21197 15.2674,0.0942 5.626,0.33955 8.97671,5.42014 7.33314,10.8731 -1.81662,0.10536 -3.47752,0.11394 -5.25899,0.11442 -1.00194,-0.0163 -1.88332,-0.0245 -2.77104,-0.1042 -0.008,-0.16835 -0.0104,-0.26509 0.0758,-0.39528 1.23159,-0.4849 1.7141,-1.33931 1.5115,-2.53116 -0.1914,-1.12613 -1.03821,-1.66725 -2.05832,-1.70048 -2.40234,-0.0783 -4.80898,-0.0251 -7.22262,-0.0251 0,1.47931 0,2.86668 -0.001,4.33544 -0.006,0.18944 -0.0115,0.2975 -0.1394,0.41214 -2.39979,0.006 -4.67699,0.006 -6.95419,0.006 z"
       id="path28"
       style="stroke-width:0.264583" />
    <path
       fill="#fbfcfc"
       opacity="1"
       stroke="none"
       d="m 174.82193,128.86601 c -0.0149,-0.26887 -0.0299,-0.53775 0.0252,-0.94436 0.10292,-0.21853 0.0881,-0.28935 0.0257,-0.35021 0.7974,-7.19495 7.50219,-11.12026 13.99064,-10.19992 5.19236,0.7365 8.96004,3.41488 10.43093,8.70134 0.23274,0.83653 0.26714,1.72826 0.25039,2.70034 -2.35733,0.11554 -4.57181,0.12522 -6.8094,0.0276 -0.19093,-2.28679 -1.2996,-3.79379 -3.30498,-4.62921 -3.16,-1.31642 -7.43115,0.35531 -8.0773,4.73395 -2.25827,-0.0145 -4.39475,-0.027 -6.53119,-0.0395 z"
       id="path30"
       style="stroke-width:0.264583" />
    <path
       fill="#a7bdca"
       opacity="1"
       stroke="none"
       d="m 99.253465,128.9291 c 0.0853,1.74504 0.17058,3.49008 0.26379,5.39705 4.302135,0 8.588895,0 12.938345,0 0,2.30202 0,4.44077 0,6.64129 -6.58939,0 -13.122575,0 -19.785855,0 0,-4.0702 0,-8.06333 0.0631,-12.18136 0.063,-0.12489 0.16458,-0.13351 0.27084,-0.11026 1.17145,0.0944 2.23666,0.1655 3.37577,0.31526 0.912,0.0263 1.75008,-0.0259 2.66033,-0.0864 0.11936,0.003 0.16654,0.0136 0.21373,0.0244 z"
       id="path32"
       style="stroke-width:0.264583" />
    <path
       fill="#fcfcfd"
       opacity="1"
       stroke="none"
       d="m 123.32218,129.17822 c 0,-1.66003 0,-3.32006 0,-5.19293 -2.61896,0 -5.01884,0 -7.59537,-0.0435 -0.22408,-0.053 -0.27149,-0.0624 -0.3189,-0.0718 0,-1.97734 0,-3.95469 0,-6.02447 7.40471,0 14.78138,0 22.24909,0 0,1.9793 0,3.97736 0,6.11026 -2.59802,0 -5.17431,0 -7.9132,0 0,1.662 0,3.19299 -0.15498,4.83581 -2.19219,0.20344 -4.22942,0.29506 -6.26664,0.38668 z"
       id="path34"
       style="stroke-width:0.264583" />
    <path
       fill="#f4f6f7"
       opacity="1"
       stroke="none"
       d="m -13.216745,155.65387 c 1.2616,-1.38582 2.4927,-2.80093 3.7903696,-4.15212 4.37777,-4.55832 8.77534002,-9.09769 13.18446,-13.62568 0.19277,-0.19797 0.57394,-0.29803 0.8679,-0.29916 5.0219,-0.0193 10.0439204,-0.0215 15.0658004,-0.002 0.26586,0.001 0.59222,0.16951 0.78713,0.3637 4.18442,4.16889 8.36818,8.33865 12.51891,12.54101 1.44177,1.45969 2.81004,2.99359 4.16872,4.53172 0.16999,0.19245 0.0748,0.61911 -0.0481,0.87285 -3.06519,-1.73541 -5.97068,-3.34122 -8.26037,-5.95972 -2.73651,-3.12949 -5.78114,-5.98954 -8.7345,-9.04248 -0.69814,-0.98351 -1.5826,-1.24828 -2.76198,-1.02919 -0.65521,-0.0118 -1.19688,0.003 -1.85496,-0.009 -0.82868,-0.0104 -1.54093,0.005 -2.37459,-0.006 -1.11956,-0.002 -2.11771,0.0226 -3.2087604,0.0293 -0.2797,-0.004 -0.46651,0.01 -0.76593,-0.006 -0.65421,-0.0124 -1.1958,0.005 -1.84707,-0.007 -0.83722,0.11662 -1.56475,0.26132 -2.37649,0.4375 -1.0847,1.07304 -2.0852,2.11461 -3.16697,3.19275 -2.64515998,2.68052 -5.31376,5.23268 -7.73792,7.99905 -1.76223,2.011 -4.2280396,2.73199 -6.3524896,4.0694 -0.22823,0.14368 -0.59215,0.0718 -0.89312,0.0999 z"
       id="path36"
       style="stroke-width:0.264583" />
    <path
       fill="#eff1f1"
       opacity="1"
       stroke="none"
       d="m 24.040935,113.32105 c -7.24444,-4.68436 -18.0023904,-4.32924 -24.62010038,0.66325 -1.01114002,0.76281 -1.77721002,0.14621 -2.94379002,-0.20329 0.82408,-0.66777 1.43102,-1.27075 2.13815,-1.71381 3.50696,-2.19733 7.24896,-3.73387 11.4658304,-3.7597 1.27277,-0.008 1.79176,-0.49871 1.39374,-1.86638 -3.8034504,-0.26994 -7.3936604,0.74499 -10.78121038,2.38538 -2.02725002,0.98167 -3.85425002,2.3768 -5.77166002,3.58545 -0.18243,0.11499 -0.3663,0.3202 -0.55199,0.32307 -1.6471,0.0255 -3.29476,0.0148 -5.1464496,0.0148 6.7210796,-6.02349 14.1995696,-9.67431 23.3338,-9.60681 0,1.54175 0,3.11237 0,4.8909 5.61281,0.32659 10.77289,1.71309 15.05828,5.55113 -1.34939,1.34951 -2.41953,0.54718 -3.5746,-0.26403 z"
       id="path38"
       style="stroke-width:0.264583" />
    <path
       fill="#abc2cd"
       opacity="1"
       stroke="none"
       d="m 199.31959,131.85583 c -1.12622,4.899 -4.27541,7.75511 -9.02443,9.09273 -4.44046,1.25072 -11.15815,-0.5282 -13.86945,-5.75804 0.20808,-0.40673 0.40135,-0.7945 0.59962,-0.79709 1.31452,-0.0172 2.63324,0.005 3.94445,0.0996 1.18253,0.0853 2.25199,-0.01 3.07649,-1.08223 3.34319,1.6832 6.04375,0.94548 8.31703,-2.12785 0.50165,0.0543 0.9477,0.0268 1.39266,-0.0125 0.46333,-0.041 1.12435,-0.31341 1.35543,-0.10456 1.28692,1.16313 2.78991,0.60041 4.2082,0.68999 z"
       id="path40"
       style="stroke-width:0.264583" />
    <path
       fill="#abc2cd"
       opacity="1"
       stroke="none"
       d="m 69.893995,133.55941 c 2.70802,1.25783 4.78998,0.91267 7.06858,-1.17504 0.7119,-0.48655 1.47621,-0.84178 1.71872,-1.417 0.34587,-0.82035 0.79402,-1.00135 1.58015,-0.99879 1.54318,0.005 3.11741,-0.19488 4.32295,1.10297 -0.48495,4.99168 -4.13183,8.98674 -9.31495,9.93579 -4.9793,0.91173 -9.21076,-0.51788 -12.39081,-4.59362 0.0776,-0.0878 2.61426,-0.87565 2.61426,-0.87565 1.43389,-0.53226 2.86946,-1.06016 4.29672,-1.60962 0.0716,-0.0275 0.0712,-0.24175 0.10438,-0.36904 z"
       id="path42"
       style="stroke-width:0.264583" />
    <path
       fill="#84a1b4"
       opacity="1"
       stroke="none"
       d="m 11.655205,129.98693 c 0.36928,0.001 0.73856,0.002 1.26227,0.0907 1.50802,0.12792 2.86572,0.11761 4.21393,0.22574 1.10245,0.0884 1.88592,-0.2514 2.62036,-1.11039 2.67972,-3.13417 5.57577,-6.09402 8.1081,-9.33972 1.62921,-2.08816 3.53827,-2.30479 5.79152,-1.84941 -1.18447,1.21058 -2.34977,2.33637 -3.5934,3.50387 -0.72543,0.63804 -1.37252,1.23437 -2.10031,1.86919 -1.16488,1.09084 -2.24908,2.14318 -3.41448,3.22908 -1.78726,2.00793 -3.53281,3.95928 -3.95508,6.68171 -1.09185,0.0359 -2.18366,0.10144 -3.27554,0.10269 -4.43877,0.005 -8.8775704,-0.01 -13.4400104,-0.14276 -0.45097,-1.10911 -0.60109,-2.20385 -1.1373,-3.05551 -1.96261998,-3.11716 -4.60164,-5.63194 -7.51938,-7.98376 -1.54111,-1.47932 -3.03853,-2.88227 -4.41548,-4.32809 2.22034,-0.20889 4.11993,-0.18031 5.67971,1.76657 2.72087002,3.39611 5.6887,6.59484 8.57116,9.86029 0.27767,0.31457 0.66909,0.71221 1.0311,0.7376 1.7092,0.11983 3.42645,0.13385 5.1411704,0.14961 0.14263,0.001 0.28771,-0.26531 0.43166,-0.40745 z"
       id="path44"
       style="stroke-width:0.264583" />
    <path
       fill="#fcfdfe"
       opacity="1"
       stroke="none"
       d="m 223.48527,128.63872 c -0.35372,0.13052 -0.7713,0.26048 -1.18899,0.26087 -5.03237,0.005 -10.06476,-0.01 -15.21792,-0.0111 -0.1208,-3.66972 -0.1208,-7.3478 -0.1208,-11.1607 2.018,0 4.02331,-0.0588 6.02029,0.0439 0.46454,0.0239 0.97055,0.53269 1.33902,0.92863 3.05061,3.2779 6.07334,6.58172 9.1684,9.93845 z"
       id="path46"
       style="stroke-width:0.264583" />
    <path
       fill="#a5bcca"
       opacity="1"
       stroke="none"
       d="m 159.57512,128.86661 c 0.88136,0.008 1.76274,0.0163 2.76581,0.13448 0.72484,2.30412 0.72484,2.30412 -1.5763,2.30428 -0.17542,1e-5 -0.35085,-3e-5 -0.52627,1e-5 -2.33597,5.3e-4 -2.37034,0.0357 -2.55941,2.39912 -0.0123,0.15413 -0.11633,0.30093 -0.2363,0.59461 -0.50462,-0.30559 -0.92697,-0.56135 -1.3822,-0.83703 -1.23194,0.45652 -2.46029,0.9117 -3.68862,1.36689 -0.23816,0.32995 -0.66759,0.65171 -0.68213,0.99122 -0.0713,1.66752 -0.0324,3.33976 -0.0324,5.11609 -2.28896,0 -4.50693,0 -6.9328,0 0,-3.91112 0,-7.85184 0.028,-11.91603 2.30524,-0.12335 4.58244,-0.12322 7.10723,-0.11281 2.73681,-0.007 5.22607,-0.0238 7.71532,-0.0408 z"
       id="path48"
       style="stroke-width:0.264583" />
    <path
       fill="#435e7b"
       opacity="1"
       stroke="none"
       d="m 20.165735,140.95859 c 2.91116,2.97676 5.95579,5.83681 8.6923,8.9663 2.28969,2.6185 5.19518,4.22431 8.16059,5.97642 -2.04473,0.13218 -4.16067,0.0204 -6.2305,0.27845 -2.23623,0.27881 -3.7493,-0.57579 -5.26849,-2.10373 -2.43443,-2.44845 -5.08506,-4.68195 -7.56593,-7.08598 1.63958,-0.007 1.42936,-1.28098 1.6131,-2.18102 0.25951,-1.27126 0.40481,-2.56583 0.59893,-3.85044 z"
       id="path50"
       style="stroke-width:0.264583" />
    <path
       fill="#f4f5f5"
       opacity="1"
       stroke="none"
       d="m 11.600665,129.91605 c -0.0894,0.21302 -0.23449,0.47964 -0.37712,0.47833 -1.7147204,-0.0158 -3.4319704,-0.0298 -5.1411704,-0.14961 -0.36201,-0.0254 -0.75343,-0.42303 -1.0311,-0.7376 -2.88246,-3.26545 -5.85028998,-6.46418 -8.57116,-9.86029 -1.55978,-1.94688 -3.45937,-1.97546 -5.79607,-1.79274 -1.4617696,0.008 -2.6866896,-2.4e-4 -3.9116196,-0.009 -0.66344,-0.578 -1.32688,-1.15599 -1.99032,-1.73398 0.0555,-0.12459 0.11091,-0.24918 0.16637,-0.37377 1.07645,0 2.15291,-0.002 3.22935,4.7e-4 2.4685196,0.007 4.9405796,0.0966 7.4039896,-0.0116 1.15675,-0.0508 1.91084,0.44431 2.63601,1.15885 4.13646,4.07583 8.26417,8.16052 12.4022504,12.23469 0.27758,0.27329 0.61596,0.48483 0.98059,0.79597 z"
       id="path52"
       style="stroke-width:0.264583" />
    <path
       fill="#f6f7f7"
       opacity="1"
       stroke="none"
       d="m 33.670535,117.91909 c -2.2724,-0.37057 -4.18146,-0.15395 -5.81067,1.93421 -2.53233,3.2457 -5.42838,6.20556 -8.1081,9.33973 -0.73444,0.85898 -1.51791,1.1988 -2.62036,1.11038 -1.34821,-0.10813 -2.70591,-0.0978 -4.12226,-0.23654 4.61251,-4.67574 9.2841,-9.25743 13.97315,-13.82117 0.25161,-0.24488 0.64833,-0.47771 0.9804,-0.48183 3.60379,-0.0447 7.20814,-0.0454 10.81235,-0.0453 0.19944,0 0.39887,0.11207 0.91108,0.26591 -0.83704,0.70709 -1.49877,1.26608 -2.37591,1.82044 -1.11178,0.0138 -2.00813,0.0322 -2.99625,0.031 -0.27566,0.0147 -0.45954,0.0489 -0.64343,0.0832 z"
       id="path54"
       style="stroke-width:0.264583" />
    <path
       fill="#a7bdca"
       opacity="1"
       stroke="none"
       d="m 152.47407,134.86527 c 1.12609,-0.49149 2.35444,-0.94667 3.58638,-1.40319 0.45523,0.27568 0.87758,0.53144 1.3822,0.83703 0.11997,-0.29368 0.22398,-0.44048 0.2363,-0.59461 0.18907,-2.36345 0.22344,-2.39858 2.55941,-2.39912 0.17542,-4e-5 0.35085,0 0.52627,-1e-5 2.30114,-1.6e-4 2.30114,-1.6e-4 1.69688,-2.29618 1.65976,-0.11046 3.32066,-0.11904 5.10095,-0.12038 0.15827,0.0953 0.14808,0.17719 -0.0778,0.28089 -0.82526,-0.0468 -1.4855,0.0476 -1.49826,0.83127 -0.006,0.34812 0.48978,0.70439 0.75777,1.05695 -0.94802,1.97937 -2.81658,2.74566 -4.5093,3.4953 1.42073,2.05949 2.87065,4.16132 4.46907,6.47841 -2.5555,0 -4.82718,0.0354 -7.09548,-0.0364 -0.35999,-0.0114 -0.81482,-0.43612 -1.03671,-0.78873 -0.79406,-1.26194 -1.57188,-2.54298 -2.23037,-3.87865 -0.55746,-1.13074 -1.31119,-1.65868 -2.57992,-1.42723 -0.38238,0.0698 -0.7894,0.004 -1.28738,-0.0354 z"
       id="path56"
       style="stroke-width:0.264583" />
    <path
       fill="#a1b7c6"
       opacity="1"
       stroke="none"
       d="m 123.2493,129.2609 c 2.1101,-0.1743 4.14733,-0.26593 6.29786,-0.35213 0.11332,3.99889 0.11332,7.99237 0.11332,12.11411 -2.04967,0 -4.065,0 -6.19963,-0.0643 -0.14181,-0.12748 -0.18652,-0.16144 -0.25337,-0.16624 -0.0104,-3.81624 -0.0207,-7.63247 0.0418,-11.53139 z"
       id="path58"
       style="stroke-width:0.264583" />
    <path
       fill="#fdfefe"
       opacity="1"
       stroke="none"
       d="m 99.294975,128.81105 c -0.0887,0.10721 -0.13588,0.0964 -0.37608,0.0846 -0.99981,0.005 -1.80661,0.0109 -2.61341,0.0168 -1.06519,-0.0711 -2.1304,-0.14223 -3.30658,-0.31149 -0.16396,-0.22911 -0.21693,-0.36009 -0.26991,-0.49106 -0.006,-3.34958 -0.0126,-6.69917 0.0437,-10.15896 0.0627,-0.11021 0.07,-0.11143 0.07,-0.11143 2.09713,0 4.19426,0 6.49377,0 0,3.59945 0,7.22648 -0.0415,10.97156 z"
       id="path60"
       style="stroke-width:0.264583" />
    <path
       fill="#fcfdfe"
       opacity="1"
       stroke="none"
       d="m 60.688375,128.88537 c 0,-3.68117 0,-7.36234 0,-11.09135 2.16002,0 4.21179,0 6.35357,0 0,3.67431 0,7.30008 -0.17086,11.01591 -2.17481,0.0852 -4.17876,0.0803 -6.18271,0.0754 z"
       id="path62"
       style="stroke-width:0.264583" />
    <path
       fill="#445f7b"
       opacity="1"
       stroke="none"
       d="m -13.166555,155.74398 c 0.25078,-0.11824 0.6147,-0.0464 0.84293,-0.19006 2.12445,-1.33742 4.5902596,-2.0584 6.3524896,-4.06941 2.42416,-2.76637 5.09276002,-5.31853 7.7536,-7.88946 0.17654,0.66963 0.45955,1.32834 0.29978,1.85194 -0.62389,2.04456 0.42897,4.27644 -0.75221,6.23471 -1.44954998,1.39535 -2.88642,2.80437 -4.36216,4.17142 -0.22379,0.20731 -0.62781,0.30684 -0.94918,0.30838 -2.76838,0.0133 -5.53703,0.001 -8.3052696,-0.0312 -0.27772,-0.003 -0.55325,-0.193 -0.87998,-0.38631 z"
       id="path64"
       style="stroke-width:0.264583" />
    <path
       fill="#fdfefe"
       opacity="1"
       stroke="none"
       d="m 78.316815,117.79432 c 2.04898,0 4.09797,0 6.31414,0 0,3.62991 0,7.20693 -0.15102,10.87964 -2.22307,0.0523 -4.29512,0.009 -6.36718,-0.0343 -0.014,-3.43485 -0.028,-6.86971 0.0256,-10.4607 0.13391,-0.21807 0.17085,-0.29422 0.17848,-0.3846 z"
       id="path66"
       style="stroke-width:0.264583" />
    <path
       fill="#a1b7c6"
       opacity="1"
       stroke="none"
       d="m 42.098295,117.27652 c 0.55285,-0.79407 1.10569,-1.58814 1.7957,-2.5792 5.32693,7.8591 6.88146,16.29969 5.72192,25.43944 -0.79971,-0.59672 -1.49577,-1.28555 -2.21324,-2.09435 -0.0329,-1.26815 -0.0443,-2.41634 -0.0413,-3.68649 -0.31092,-2.52268 -0.63631,-4.92341 -0.97437,-7.43157 -0.65225,-1.87452 -1.29182,-3.64161 -1.94109,-5.50423 -0.789,-1.44488 -1.5683,-2.79424 -2.34761,-4.1436 z"
       id="path68"
       style="stroke-width:0.264583" />
    <path
       fill="#1e344c"
       opacity="1"
       stroke="none"
       d="m 14.506085,114.65417 c 1.45687,0.36135 2.79829,0.72116 4.41888,1.15585 -0.86356,1.11741 -1.52653,2.01067 -2.22831,2.87233 -0.58177,0.7143 -1.1971,1.40248 -1.81905,2.08259 -1.30659,1.42876 -3.90571,1.49162 -5.2859104,0.13409 -0.50214,-0.49389 -1.01793,-0.97899 -1.47345,-1.51409 -0.874,-1.02672 -1.70938,-2.08631 -2.70784,-3.31292 2.96044,-1.49755 5.8750104,-2.00409 9.0956804,-1.41785 z"
       id="path70"
       style="stroke-width:0.264583" />
    <path
       fill="#2f4761"
       opacity="1"
       stroke="none"
       d="m 26.740085,167.55783 c -2.60349,1.64259 -5.55082,2.29215 -8.50377,2.89205 -4.93561,1.00269 -9.8184904,0.63843 -14.6511404,-0.69051 -0.41813,-0.11498 -0.84847,-0.18556 -1.36895,-0.41412 -0.35106,-0.90817 -0.86275,-1.71036 0.17178,-2.32328 3.26995,0.80649 6.54933,1.38423 9.9546504,1.39603 3.81895,0.0133 7.47835,-0.58617 11.18686,-1.92193 0.19454,-0.0629 0.23698,-0.10398 0.26923,-0.15559 0.37334,-0.135 0.74668,-0.26998 1.26957,-0.33948 0.60119,0.27004 1.05284,0.47458 1.47159,0.66422 0.066,0.29448 0.13311,0.59354 0.20018,0.89261 z"
       id="path72"
       style="stroke-width:0.264583" />
    <path
       fill="#a9beca"
       opacity="1"
       stroke="none"
       d="m 206.90836,131.42808 c 0.27889,-0.42775 0.53388,-0.73358 0.74453,-0.98621 1.05589,0.21017 2.1702,0.31628 3.18832,0.68673 0.46202,0.1681 1.02387,0.85411 1.03361,1.31585 0.0237,1.12605 0.52043,1.7937 1.52644,2.2899 0.0913,2.02698 0.0913,4.0423 0.0913,6.13211 -2.18501,0 -4.31992,0 -6.60809,0 0,-3.10072 0,-6.20859 0.0239,-9.43838 z"
       id="path74"
       style="stroke-width:0.264583" />
    <path
       fill="#1e344b"
       opacity="1"
       stroke="none"
       d="m 18.401785,155.55631 c -4.215,1.97247 -8.35143,1.59669 -12.7368004,0.0208 0.4463,-0.61698 0.73242,-1.09408 1.09696,-1.50091 1.02599,-1.14501 2.09045,-2.25544 3.12827,-3.38998 1.4352204,-1.56899 3.0177804,-1.61449 4.4919804,-0.0796 1.2484,1.29979 2.47642,2.61989 3.68262,3.95879 0.20899,0.23199 0.26446,0.60228 0.33697,0.99087 z"
       id="path76"
       style="stroke-width:0.264583" />
    <path
       fill="#f8fafa"
       opacity="1"
       stroke="none"
       d="m 159.34907,151.01864 c 0.64055,-0.22439 1.26204,-0.32919 2.01871,-0.45678 0,3.16903 0,6.18139 0,9.22176 -1.04217,0.34082 -1.81149,0.0346 -2.50361,-0.92679 -1.01225,-1.40607 -2.1805,-2.69983 -3.4948,-4.30026 0,1.94491 0,3.54818 0,5.23462 -0.74065,0 -1.379,0 -2.13838,0 0,-2.94702 0,-5.95934 0,-9.05495 1.17119,-0.31915 2.12335,-0.10815 2.91687,1.09423 0.8646,1.31004 1.95313,2.4723 3.18217,3.9938 0,-1.76826 0,-3.22715 0.019,-4.80563 z"
       id="path78"
       style="stroke-width:0.264583" />
    <path
       fill="#f4f7f7"
       opacity="1"
       stroke="none"
       d="m 171.45119,150.48245 c 1.59932,0.0555 2.83786,0.58821 3.72711,1.93949 -0.74507,0.67233 -1.39112,1.39835 -2.52735,0.57641 -1.05943,-0.76638 -2.15324,-0.66533 -3.11914,0.23186 -0.80818,0.75072 -1.00483,2.26481 -0.44972,3.2984 0.61546,1.14597 1.61252,1.59032 2.86025,1.37911 0.73823,-0.12497 1.70762,-0.15854 1.29214,-1.50003 -1.12496,0.0385 -2.26214,-0.044 -1.64963,-1.82421 1.20353,0 2.45252,0 3.81955,0 0,1.24649 0.0197,2.46867 -0.0155,3.68925 -0.008,0.26756 -0.13662,0.66276 -0.33564,0.77408 -3.27701,1.83287 -7.38801,1.1711 -8.39236,-2.60722 -0.82595,-3.10722 1.09289,-5.55635 4.79026,-5.95714 z"
       id="path80"
       style="stroke-width:0.264583" />
    <path
       fill="#f3f4f5"
       opacity="1"
       stroke="none"
       d="m 131.92487,150.78606 c 0.73314,-0.0914 1.3865,-0.0914 2.11567,-0.0914 0,3.04575 0,6.06031 0,9.12466 -0.75461,0 -1.43735,0 -2.21096,0 0,-1.18604 0,-2.31863 0,-3.52989 -1.29716,0 -2.50455,0 -3.86136,0 0,1.18606 0,2.35189 0,3.54519 -0.83632,0 -1.52423,0 -2.28523,0 0,-3.06995 0,-6.08925 0,-9.13509 0.7484,0 1.44523,0 2.24773,0 0,1.16972 0,2.29803 0,3.52544 1.30267,0 2.50518,0 3.91436,0 0,-1.09256 0,-2.22008 0.0798,-3.43895 z"
       id="path82"
       style="stroke-width:0.264583" />
    <path
       fill="#7692a6"
       opacity="1"
       stroke="none"
       d="m 29.358165,112.03148 c -3.53725,-2.41184 -7.2684,-4.4016 -11.52765,-5.20621 -1.02764,-0.19412 -2.07319,-0.3826 -3.11274,-0.3957 -0.80393,-0.0101 -1.157,-0.2347 -1.11676,-1.03895 0.0198,-0.39546 0.0327,-0.79572 -0.005,-1.18866 -0.0755,-0.78721 0.31001,-1.06338 1.02019,-0.9253 2.63706,0.5127 5.28574,0.98062 7.89718,1.60323 1.13222,0.26994 2.18454,0.87495 3.32407,1.50085 1.30075,1.45673 2.55058,2.74037 3.79795,4.12768 -0.0941,0.57681 -0.18567,1.04993 -0.27728,1.52306 z"
       id="path84"
       style="stroke-width:0.264583" />
    <path
       fill="#f0f2f3"
       opacity="1"
       stroke="none"
       d="m 187.20226,150.72263 c 0.25685,0.56744 0.39289,1.12417 0.57117,1.8539 -1.68145,0 -3.15035,0 -4.72127,0 0,0.62991 0,1.1258 0,1.70316 1.19781,0 2.42117,0 3.74927,0 0,0.61752 0,1.1583 0,1.85194 -1.25229,0 -2.54463,0 -3.84288,0 0,0.62442 0,1.09796 0,1.73585 1.5563,0 3.07392,0 4.66941,0 0,0.71171 0,1.26444 0,1.91989 -2.2984,0 -4.63755,0 -7.04606,0 0,-2.99188 0,-5.96122 0,-9.07547 2.20983,0 4.35467,0 6.62036,0.0107 z"
       id="path86"
       style="stroke-width:0.264583" />
    <path
       fill="#f7f9f9"
       opacity="1"
       stroke="none"
       d="m 144.92776,150.8444 c 1.31061,3.02049 2.55965,5.95303 3.85358,8.99094 -1.28397,0.01 -2.56533,0.48577 -2.90637,-1.27398 -0.0379,-0.19554 -0.52143,-0.40707 -0.81311,-0.43106 -0.74262,-0.0611 -1.50007,0.0413 -2.23965,-0.0359 -0.87062,-0.0909 -1.38028,0.17522 -1.66727,1.04073 -0.4624,1.3946 -1.63031,0.49044 -2.68728,0.82393 1.28167,-3.1006 2.38588,-6.04428 3.77336,-8.84776 0.21919,-0.44288 1.718,-0.25247 2.68674,-0.26691 m -1.9988,5.34831 c 0.63469,0 1.26937,0 2.02375,0 -0.44791,-1.06049 -0.82898,-1.96277 -1.21007,-2.86504 -0.11228,-0.003 -0.22456,-0.007 -0.33683,-0.01 -0.22911,0.95542 -0.45819,1.91084 -0.47685,2.87488 z"
       id="path88"
       style="stroke-width:0.264583" />
    <path
       fill="#415d77"
       opacity="1"
       stroke="none"
       d="m 37.323605,144.08599 c 0.53934,-1.72639 1.07868,-3.45277 1.68703,-5.33964 0.0904,-0.3086 0.11176,-0.45671 0.13314,-0.60482 0.0263,-0.44024 0.0525,-0.88048 0.17007,-1.44914 0.0968,-0.38297 0.10237,-0.63752 0.1079,-0.89207 0.005,-0.29063 0.0102,-0.58126 0.15124,-0.97236 1.12182,-0.0952 2.10767,-0.0899 3.09352,-0.0846 0.57677,2.33265 -0.30793,4.52058 -0.69898,6.75178 -0.14052,0.80179 -0.4906,1.56685 -0.81596,2.46887 -0.10218,0.15789 -0.12745,0.19925 -0.14673,0.24427 -0.44539,1.03202 -0.89077,2.06404 -1.41951,3.20164 -0.11748,0.14245 -0.14565,0.18342 -0.16787,0.22848 -0.12897,0.25561 -0.25794,0.51123 -0.55483,0.81259 -1.8804,-0.68151 -1.90591,-2.16056 -1.83031,-3.68467 0.0376,-0.1212 0.0752,-0.24241 0.17027,-0.47227 0.0574,-0.10865 0.12103,-0.20801 0.12102,-0.20801 z"
       id="path90"
       style="stroke-width:0.264583" />
    <path
       fill="#a5bcca"
       opacity="1"
       stroke="none"
       d="m 60.655175,129.00448 c 2.03715,-0.11424 4.0411,-0.10937 6.16917,-0.0961 0.38359,1.94365 1.20513,3.52623 3.01378,4.58777 0.0227,0.19058 0.023,0.40479 -0.0485,0.43233 -1.42726,0.54946 -2.86283,1.07736 -4.29672,1.60962 0,0 -2.53665,0.78788 -2.63656,0.79137 -1.80693,-2.10488 -2.35039,-4.55774 -2.20116,-7.32496 z"
       id="path92"
       style="stroke-width:0.264583" />
    <path
       fill="#425d7a"
       opacity="1"
       stroke="none"
       d="m -4.7404354,122.28477 c 2.87406,2.27545 5.51308002,4.79023 7.4757,7.9074 0.53621,0.85165 0.68633,1.9464 1.01794,3.03528 -1.77337,0.39131 -3.21719998,0.1514 -4.43862998,-1.50556 -1.59237002,-2.16017 -3.52221002,-4.07158 -5.30816002,-6.25607 0.41683,-1.17104 0.83499,-2.17604 1.25315,-3.18105 z"
       id="path94"
       style="stroke-width:0.264583" />
    <path
       fill="#f4f7f7"
       opacity="1"
       stroke="none"
       d="m 104.91621,157.61687 c -0.12096,-0.1964 -0.17444,-0.31902 -0.24975,-0.42631 -0.0753,-0.10728 -0.17247,-0.19923 -0.29331,-0.33538 -1.14601,1.42324 -1.48661,4.0015 -4.35519,2.83577 0.93982,-1.50663 1.90582,-3.0552 2.8924,-4.63678 -0.9483,-1.4216 -1.88608,-2.82744 -2.7959,-4.19136 2.49487,-0.96983 3.44066,0.66997 4.29918,2.6523 1.11243,-1.53155 1.51054,-3.82811 4.14237,-2.66156 -0.86574,1.35702 -1.75215,2.74646 -2.65168,4.15645 0.907,1.54633 1.83119,3.12194 2.75543,4.69765 -2.17484,0.84281 -2.92373,-0.59481 -3.74355,-2.09078 z"
       id="path96"
       style="stroke-width:0.264583" />
    <path
       fill="#eceeef"
       opacity="1"
       stroke="none"
       d="m 35.252635,125.97948 c 1.53139,2.78736 2.07281,5.80105 2.04989,8.94511 -0.0305,4.17919 -1.3462,7.94983 -3.56596,11.44548 -1.61362,-0.84416 -1.66831,-0.99583 -0.86706,-2.45793 2.95051,-5.384 3.20239,-10.93596 1.09591,-16.8046 0.46292,-0.48575 0.87507,-0.80691 1.28722,-1.12806 z"
       id="path98"
       style="stroke-width:0.264583" />
    <path
       fill="#f4f7f7"
       opacity="1"
       stroke="none"
       d="m 113.5856,158.46849 c -1.69822,-2.46901 -1.4143,-5.35662 0.61737,-6.96826 2.02154,-1.60359 4.93893,-1.29319 6.84049,0.82232 -0.48844,0.46367 -0.98175,0.93196 -1.46386,1.38961 -2.0155,-1.46629 -3.12568,-1.52913 -4.21168,-0.28687 -0.87656,1.00269 -0.83255,2.76862 0.0937,3.75873 1.08099,1.15555 2.35711,1.07824 4.17402,-0.31709 0.52282,0.38702 1.0705,0.79243 1.6183,1.19794 -1.84101,2.46412 -5.07915,2.62639 -7.66835,0.40362 z"
       id="path100"
       style="stroke-width:0.264583" />
    <path
       fill="#2f4763"
       opacity="1"
       stroke="none"
       d="m 22.240395,102.71184 c -0.34278,-0.42464 -0.68517,-0.84019 -1.15516,-1.4106 0.0459,-0.10528 0.18858,-0.43261 0.34067,-0.85109 4.77584,0.94818 8.97208,3.18135 12.77537,6.15985 1.6738,1.31082 3.18854,2.82474 4.79721,4.2659 -0.48342,0.53641 -0.77563,0.86064 -1.09474,1.2635 -0.78433,-0.46814 -1.61055,-0.94142 -2.287,-1.57467 -2.60373,-2.43747 -5.50814,-4.4209 -8.81565,-6.10689 -0.37142,-0.21046 -0.63319,-0.29993 -0.89495,-0.3894 -0.81435,-0.28725 -1.62869,-0.5745 -2.56607,-0.92685 -0.16549,-0.10436 -0.21358,-0.13468 -0.26731,-0.15607 -0.13211,-0.015 -0.26422,-0.03 -0.5226,-0.10435 -0.17368,-0.10525 -0.22864,-0.13874 -0.29115,-0.15986 0,0 -0.0182,-3.7e-4 -0.0186,-0.009 z"
       id="path102"
       style="stroke-width:0.264583" />
    <path
       fill="#bacbd6"
       opacity="1"
       stroke="none"
       d="m 42.684275,134.62769 c -1.00362,0.11035 -1.98947,0.10507 -3.0952,0.0923 -0.36572,-3.79375 -1.07775,-7.44215 -3.16586,-10.74352 1.3284,-0.35026 2.5541,-0.61017 3.7798,-0.87007 0.78385,2.465 1.67975,4.90205 2.30474,7.40669 0.31693,1.27006 0.14514,2.66207 0.17652,4.11456 z"
       id="path104"
       style="stroke-width:0.264583" />
    <path
       fill="#eceeef"
       opacity="1"
       stroke="none"
       d="m -12.581575,130.65934 c 0.72405,-2.73591 1.72091,-5.22832 3.2950996,-7.59932 0.4417,0.46204 0.81615,0.85374 1.04443,1.09254 -0.81345,2.38655 -1.7914196,4.62452 -2.3229796,6.96392 -0.78878,3.47147 -0.33842,6.92652 0.8842596,10.27829 0.14461,0.39642 0.26265,1.0078 0.0648,1.28618 -0.6457596,0.90838 -1.3115596,0.75685 -1.7606996,-0.29211 -1.49471,-3.49088 -1.77832,-7.12486 -1.29626,-10.85187 0.0332,-0.25661 0.0269,-0.51832 0.0914,-0.87763 z"
       id="path106"
       style="stroke-width:0.264583" />
    <path
       fill="#a3bcc9"
       opacity="1"
       stroke="none"
       d="m 183.95056,133.39508 c -0.72879,1.08805 -1.79825,1.18321 -2.98078,1.09794 -1.31121,-0.0945 -2.62993,-0.11676 -3.94445,-0.0996 -0.19827,0.003 -0.39154,0.39036 -0.61655,0.71295 -1.29659,-1.73782 -1.73937,-3.81101 -1.63513,-6.12955 2.18473,-0.0983 4.32121,-0.0857 6.59627,0.0338 0.27039,1.92231 1.23724,3.26086 2.58064,4.38442 z"
       id="path108"
       style="stroke-width:0.264583" />
    <path
       fill="#4a6781"
       opacity="1"
       stroke="none"
       d="m -14.943855,147.72375 c -0.11654,-0.22698 -0.23308,-0.45397 -0.3881,-0.81501 -0.0736,-0.18506 -0.1191,-0.22381 -0.17506,-0.25032 -1.78999,-3.68788 -2.84448,-7.55038 -2.63212,-11.78253 1.16649,-0.13863 2.19209,-0.1749 3.21768,-0.21119 0.0145,2.89383 0.58667,5.67853 1.57038,8.53086 -0.65826,1.09599 -0.8135,2.05164 -0.48632,3.15396 0.20746,0.69895 0.22365,1.5442 -0.91304,1.59582 0,0 -0.0367,-0.008 -0.0597,-0.0603 -0.0521,-0.0963 -0.089,-0.13277 -0.13369,-0.16128 z"
       id="path110"
       style="stroke-width:0.264583" />
    <path
       fill="#35506a"
       opacity="1"
       stroke="none"
       d="m 6.0436846,165.73423 c -0.70911,-0.11862 -1.41821,-0.23724 -2.26189,-0.41658 -0.18185,-0.10564 -0.23664,-0.13776 -0.29893,-0.15712 -1.01037,-0.36441 -2.02074,-0.72881 -3.15418998,-1.16318 -0.16923,-0.112 -0.22214,-0.14221 -0.28181,-0.1606 -1.40043002,-0.7808 -2.80062002,-1.56203 -4.20139002,-2.34223 -0.6419,-0.35752 -0.75849,-0.7501 -0.20022,-1.32964 0.63292,-0.65703 1.19427,-1.383 1.91123,-2.03236 0.53136,0.37291 0.89258,0.79973 1.35273,1.00869 2.49982,1.13514 5.02405,2.21653 7.45309,3.38398 -0.0603,1.09924 -0.0338,2.13091 -0.0856,3.17091 -0.12987,0.0183 -0.18143,0.0282 -0.23298,0.0381 z"
       id="path112"
       style="stroke-width:0.264583" />
    <path
       fill="#29405a"
       opacity="1"
       stroke="none"
       d="m 2.3293846,166.94953 c -0.97591,0.68536 -0.46422,1.48755 -0.20693,2.35491 -5.28306,-1.48266 -9.82906,-4.32395 -13.9507096,-8.06564 0.48157,-0.69861 1.0436,-1.35884 1.68122,-2.10787 3.6498796,3.75502 7.8683996,6.02365 12.4764196,7.8186 z"
       id="path114"
       style="stroke-width:0.264583" />
    <path
       fill="#334b63"
       opacity="1"
       stroke="none"
       d="m -0.54848538,101.58599 c 0.71249,0.29704 1.47331,0.48721 1.34117,1.54633 -0.55917,0.35474 -1.1165,0.60888 -1.82223002,0.81209 -0.46236,0.15875 -0.77634,0.36844 -1.09032,0.57813 -2.42864,1.55044 -4.8691,3.08288 -7.27776,4.66377 -0.6165196,0.40463 -1.1729696,0.92361 -1.6858696,1.45829 -0.93086,0.97038 -1.77087,0.8603 -2.63762,-0.18119 3.49861,-3.78998 7.5781796,-6.69769 12.3365996,-8.6203 0.24306,-0.0982 0.49869002,-0.16527 0.83603002,-0.25712 z"
       id="path116"
       style="stroke-width:0.264583" />
    <path
       fill="#192e42"
       opacity="1"
       stroke="none"
       d="m 7.8260546,112.34671 c 4.9709604,-0.9152 9.6208104,-0.19059 14.1202004,1.78649 1.02033,0.44835 1.64664,0.99622 1.13413,2.42789 -7.05949,-4.13768 -14.1826904,-4.51493 -21.2632404,-0.11087 -0.97636998,-0.7972 -0.89358998,-1.51288 0.11019,-1.92721 1.90099,-0.78468 3.85859,-1.43222 5.89872,-2.1763 z"
       id="path118"
       style="stroke-width:0.264583" />
    <path
       fill="#4c6781"
       opacity="1"
       stroke="none"
       d="m 45.713045,146.67338 c 0.007,0.70078 0.0141,1.40156 -0.0788,2.24366 -0.88375,1.33246 -1.61703,2.56135 -2.46945,3.70114 -0.548,0.73275 -1.27122,1.33446 -1.91589,1.99491 -0.69444,-0.58389 -1.43771,-1.1223 -2.05157,-1.78126 -0.16921,-0.18164 -0.057,-0.77634 0.10396,-1.0904 1.12436,-2.19437 2.29541,-4.36481 3.61113,-6.59373 1.03998,0.4747 1.92032,1.00019 2.80065,1.52568 z"
       id="path120"
       style="stroke-width:0.264583" />
    <path
       fill="#192c3f"
       opacity="1"
       stroke="none"
       d="m 22.485055,156.96241 c -3.38367,1.89418 -6.93963,2.76955 -10.69658,2.63094 -3.3629504,-0.12406 -6.6050704,-0.8538 -9.5554204,-2.58391 -1.02391,-0.60042 -1.06545,-0.77848 -0.56669,-1.52356 2.574,0.81803 5.00953,1.91131 7.55581,2.32837 4.0779104,0.66793 8.1410104,0.33988 11.8484304,-1.83154 0.22748,-0.13324 0.46361,-0.3114 0.71027,-0.33909 0.43661,-0.049 0.88441,0.002 1.32753,0.0105 -0.17779,0.42267 -0.35557,0.84535 -0.62335,1.30825 z"
       id="path122"
       style="stroke-width:0.264583" />
    <path
       fill="#283f58"
       opacity="1"
       stroke="none"
       d="m -18.052705,145.59205 c 1.17059,2.33585 2.34118,4.6717 3.57197,7.12767 -0.72554,0.58889 -1.63382,1.32609 -2.63692,1.9975 -1.32859,-2.02675 -2.55905,-3.9898 -3.80342,-5.944 -0.0846,-0.1329 -0.27373,-0.19927 -0.41424,-0.29658 -0.0196,-0.52953 -0.0393,-1.05906 0.0483,-1.7062 1.06019,-0.64004 2.01315,-1.16247 2.96611,-1.68489 0.0105,0.046 0.021,0.0919 0.0704,0.25419 0.0793,0.17628 0.13227,0.22163 0.19778,0.25231 z"
       id="path124"
       style="stroke-width:0.264583" />
    <path
       fill="#3e5974"
       opacity="1"
       stroke="none"
       d="m -22.801295,138.1089 c -0.042,-1.77043 -0.0841,-3.54086 0.036,-5.40016 0.89297,0.17976 1.6238,0.44839 2.35463,0.71702 0.0204,0.88716 0.0408,1.7743 -0.014,2.83763 0.0318,0.49458 0.13885,0.81301 0.24589,1.13143 0.40438,2.1735 0.80876,4.347 1.2743,6.68653 -0.80612,0.33404 -1.67338,0.50205 -2.53471,0.56428 -0.45009,-2.24943 -0.90613,-4.39308 -1.36217,-6.53673 z"
       id="path126"
       style="stroke-width:0.264583" />
    <path
       fill="#283f58"
       opacity="1"
       stroke="none"
       d="m 26.838835,167.55584 c -0.16582,-0.29708 -0.23289,-0.59614 -0.29893,-0.89062 -0.41875,-0.18964 -0.8704,-0.39418 -1.37391,-0.68365 3.24472,-1.94323 6.73616,-3.52232 9.31043,-6.98742 0.65967,0.81171 1.16742,1.4365 1.65323,2.18784 -1.12041,1.14886 -2.21886,2.17115 -3.3173,3.19345 -1.28539,0.77502 -2.55485,1.57844 -3.86306,2.31282 -0.63305,0.35537 -1.33885,0.58114 -2.11046,0.86758 z"
       id="path128"
       style="stroke-width:0.264583" />
    <path
       fill="#21354b"
       opacity="1"
       stroke="none"
       d="m 26.893875,158.26787 c 0.0416,0.0138 0.0917,0.0173 0.12368,0.043 2.9271,2.35855 2.97273,2.61054 -0.20638,4.44629 -1.80265,1.04092 -3.81066,1.72618 -5.81529,2.49403 0.15771,-0.62681 0.28315,-1.29295 0.67635,-1.7012 0.85031,-0.88286 0.59699,-1.49987 -0.20413,-2.16823 0.21013,-0.14852 0.3744,-0.24186 0.63517,-0.35579 1.57011,-0.90517 3.04372,-1.78976 4.56518,-2.68841 0.0479,-0.014 0.12579,-0.0765 0.12579,-0.0765 0,0 0.0996,0.007 0.0996,0.007 z"
       id="path130"
       style="stroke-width:0.264583" />
    <path
       fill="#415d77"
       opacity="1"
       stroke="none"
       d="m 47.346895,134.47787 c 0.0115,1.1482 0.0229,2.29639 -0.0309,3.63171 -0.55105,2.34491 -1.03686,4.50269 -1.64068,6.67043 -0.93628,-0.0768 -1.75455,-0.16361 -2.57282,-0.25038 0.29176,-1.08101 0.58352,-2.16202 0.93974,-3.37476 0.10739,-0.17624 0.13829,-0.22793 0.15716,-0.28683 0.0137,-0.29816 0.0274,-0.59633 0.10521,-1.03227 0.10952,-0.1856 0.14042,-0.24147 0.15679,-0.30538 0.0113,-0.37297 0.0225,-0.74594 0.12181,-1.24369 0.0904,-0.29895 0.0929,-0.47312 0.0953,-0.64729 0.0198,-0.97089 0.0395,-1.94177 0.18852,-3.03503 0.91277,-0.12375 1.69628,-0.12513 2.47981,-0.12651 z"
       id="path132"
       style="stroke-width:0.264583" />
    <path
       fill="#3e5974"
       opacity="1"
       stroke="none"
       d="m 1.4134546,151.64811 c 1.09776,-1.92468 0.0449,-4.15656 0.66879,-6.20112 0.15977,-0.5236 -0.12324,-1.18231 -0.2185,-1.88852 0.98481,-1.15114 1.98531,-2.19271 3.075,-3.1501 0.1773,1.0335 0.34925,1.98409 0.3351,2.93189 -0.0253,1.69344 -0.1628,3.3852 -0.25339,5.07767 -1.17452,1.06553 -2.34905,2.13106 -3.607,3.23018 z"
       id="path134"
       style="stroke-width:0.264583" />
    <path
       fill="#38506b"
       opacity="1"
       stroke="none"
       d="m -4.7841154,122.20841 c -0.37448,1.08137 -0.79264,2.08637 -1.2491,3.17742 -1.16441,-1.11617 -2.28758,-2.32116 -3.41744,-3.51983 -1.2218196,-1.29621 -2.4498996,-2.58652 -3.7260896,-3.94998 1.1741,-0.0621 2.39902,-0.0537 3.7403196,-0.019 1.61378,1.42912 3.1112,2.83208 4.65231,4.3114 z"
       id="path136"
       style="stroke-width:0.264583" />
    <path
       fill="#f3f4f5"
       opacity="1"
       stroke="none"
       d="m 22.006775,161.04658 c -0.16427,0.0933 -0.32854,0.18669 -0.64545,0.33523 -1.60024,0.47141 -3.04209,0.90932 -4.49798,1.29413 -0.66629,0.17611 -1.36021,0.2477 -2.1636,0.34401 -1.5396,-0.001 -2.95719,0.0204 -4.47674,0.005 -0.8261904,-0.15544 -1.5504404,-0.27399 -2.3136004,-0.43266 -0.1113,-0.0786 -0.18329,-0.0779 -0.25383,-0.0412 0.001,-0.003 -0.002,0.004 0.0322,-0.0804 0.54803,-0.46655 1.06148,-0.84897 1.57493,-1.23138 1.8673304,-0.008 3.7346704,-0.0169 5.7736404,-2.7e-4 0.25517,0.025 0.30167,-0.0165 0.31115,-0.0995 0.37301,-0.0602 0.74602,-0.12035 1.28899,-0.16435 0.26151,0.007 0.30917,-0.043 0.31294,-0.13493 0.56318,-0.12931 1.12636,-0.25861 1.85436,-0.38379 0.25148,-0.0254 0.28516,-0.085 0.26583,-0.17444 0.72532,-0.27041 1.45064,-0.54082 2.27156,-0.7192 0.2856,0.55594 0.47561,1.01984 0.66562,1.48375 z"
       id="path138"
       style="stroke-width:0.264583" />
    <path
       fill="#98b3c1"
       opacity="1"
       stroke="none"
       d="m -21.949695,126.27928 c -0.90803,-0.79429 -1.00466,-1.7543 -0.52303,-2.79515 0.32932,-0.71171 0.29871,-1.31599 -0.41512,-1.88115 0.21333,-0.74375 0.49339,-1.42856 0.85392,-2.20368 0.0804,-0.0903 0.0982,-0.14979 0.0982,-0.14979 0.0238,-0.0783 0.0475,-0.15659 0.15567,-0.34955 0.0844,-0.11468 0.1088,-0.18994 0.1088,-0.18994 0.0305,-0.0837 0.061,-0.1673 0.16966,-0.35988 0.0781,-0.10892 0.0931,-0.11891 0.0931,-0.11891 0.0248,-0.0834 0.0495,-0.16674 0.15717,-0.37806 0.0829,-0.12794 0.10982,-0.21269 0.10982,-0.21269 0.3917,-0.70007 0.7834,-1.40015 1.329,-2.11392 0.42983,0.0529 0.70576,0.11948 0.98169,0.18606 0.3696,0.54581 0.73921,1.09162 1.002,1.76392 -0.67061,1.14265 -1.2344,2.15881 -1.89038,3.20565 -0.70354,1.70872 -1.3149,3.38676 -1.95704,5.13662 -0.11165,0.20137 -0.19254,0.33092 -0.27342,0.46047 z"
       id="path140"
       style="stroke-width:0.264583" />
    <path
       fill="#1d3448"
       opacity="1"
       stroke="none"
       d="m -6.5970054,135.74294 c 0.002,-0.95628 -0.0394,-1.79136 0.0111,-2.62086 0.0504,-0.8293 0.38228,-1.44669 1.38987,-1.2677 0.84508,0.15011 1.77247,0.11084 1.77517,1.4213 0.003,1.6093 0.20468,3.21861 0.19599,4.82723 -0.002,0.41527 -0.4107,0.88515 -0.73929,1.22751 -0.41367,0.43102 -0.93693,0.75688 -1.66295,1.32312 -0.35461,-1.74453 -0.66382,-3.26574 -0.96986,-4.9106 z"
       id="path142"
       style="stroke-width:0.264583" />
    <path
       fill="#192e42"
       opacity="1"
       stroke="none"
       d="m -8.9930154,134.98881 c 0.22913,-1.76348 0.4093,-3.41121 0.7243,-5.03274 0.0716,-0.36841 0.61035,-0.64605 0.93409,-0.96547 0.19293,0.50895 0.58055,1.03296 0.54254,1.52404 -0.11707,1.51244 -0.67571,3.03661 -0.54713,4.51126 0.1868,2.1422 0.73947,4.26822 1.30988,6.3536 0.23137,0.84584 0.0918,1.21779 -0.6994,1.53972 -1.78059,-2.33028 -2.04542,-5.0609 -2.26428,-7.93041 z"
       id="path144"
       style="stroke-width:0.264583" />
    <path
       fill="#273e57"
       opacity="1"
       stroke="none"
       d="m 14.821745,163.04263 c 0.68139,-0.11899 1.37531,-0.19058 2.0416,-0.36669 1.45589,-0.38481 2.89774,-0.82272 4.45212,-1.23896 0.95376,0.61317 1.20708,1.23018 0.35677,2.11304 -0.3932,0.40826 -0.51864,1.07439 -0.77051,1.71523 -2.04337,0.46519 -4.08172,0.83876 -6.21134,1.11067 0.20819,-0.2336 0.55947,-0.30578 0.79586,-0.51057 0.42692,-0.36987 0.78518,-0.81899 1.17211,-1.23502 -0.41443,-0.35019 -0.83072,-0.69821 -1.24247,-1.05152 -0.20239,-0.17367 -0.39636,-0.35715 -0.59414,-0.53618 z"
       id="path146"
       style="stroke-width:0.264583" />
    <path
       fill="#d1dfe7"
       opacity="1"
       stroke="none"
       d="m -17.345505,127.58795 c 0.8729,-2.35861 1.7458,-4.71721 2.75427,-7.44215 1.14853,1.4154 1.97281,2.43121 2.81478,3.46881 -0.12073,0.34701 -0.25808,0.74181 -0.53197,1.22487 -0.99684,0.0504 -1.53233,0.22232 -1.82301,1.26199 -0.64569,2.30944 -0.74344,2.28205 -3.08575,1.51745 -0.0417,-0.0136 -0.0855,-0.0208 -0.12832,-0.031 z"
       id="path148"
       style="stroke-width:0.264583" />
    <path
       fill="#445f7b"
       opacity="1"
       stroke="none"
       d="m 24.624405,126.57247 c 1.08419,-1.05234 2.16839,-2.10468 3.33818,-3.08291 0.0129,1.1558 -0.09,2.23672 -0.11778,3.31956 -0.0113,0.44004 0.14073,0.88427 0.21844,1.3266 -0.13537,0.23334 -0.27074,0.46667 -0.53339,0.77144 -0.19712,0.12235 -0.24627,0.1886 -0.27473,0.27021 -1.05902,1.22696 -2.10506,2.46558 -3.18806,3.671 -0.21524,0.23958 -0.57204,0.35198 -0.95232,0.4123 0.0611,-0.41475 0.22932,-0.71126 0.35792,-1.02406 0.74564,-1.81363 1.92586,-3.54108 1.15174,-5.66414 z"
       id="path150"
       style="stroke-width:0.264583" />
    <path
       fill="#1d3149"
       opacity="1"
       stroke="none"
       d="m 33.342645,133.72405 c 0.174,3.29931 -0.40833,6.30322 -1.97855,9.14717 -1.12381,-0.21691 -1.31613,-0.69248 -0.84048,-1.73512 1.51529,-3.32159 2.04711,-6.76477 0.75053,-10.29212 -0.35892,-0.97647 0.0204,-1.5508 0.81663,-2.26339 0.95488,1.61158 1.1082,3.31265 1.25187,5.14346 z"
       id="path152"
       style="stroke-width:0.264583" />
    <path
       fill="#b9c6d7"
       opacity="1"
       stroke="none"
       d="m 9.1959946,161.15792 c -0.44676,0.46383 -0.96021,0.84625 -1.60934,1.32327 -0.46964,0.0552 -0.8036,0.0158 -1.13757,-0.0236 -2.51582,-1.09989 -5.04005,-2.18128 -7.53987,-3.31642 -0.46015,-0.20896 -0.82137,-0.63578 -1.27104,-1.04221 0.51909,-0.94937 1.15242,-0.99573 2.05308002,-0.47131 2.93381998,1.70827 6.00850998,3.07642 9.50473998,3.53023 z"
       id="path154"
       style="stroke-width:0.264583" />
    <path
       fill="#1e344c"
       opacity="1"
       stroke="none"
       d="m 30.957965,135.00994 c 0.096,1.93073 -0.20878,3.64837 -1.04899,5.50497 -0.84818,-0.7359 -1.55334,-1.34772 -2.14933,-1.8648 0.1221,-2.00475 0.23767,-3.90245 0.36041,-5.91785 0.73491,0 1.67035,0 2.8378,0 0,0.70114 0,1.42514 1.1e-4,2.27768 z"
       id="path156"
       style="stroke-width:0.264583" />
    <path
       fill="#3a546e"
       opacity="1"
       stroke="none"
       d="m 47.361365,134.35592 c -0.798,0.12333 -1.58151,0.12471 -2.48134,0.12777 -0.38555,-2.39918 -0.65482,-4.80003 -0.81523,-7.30702 0.85087,-0.11906 1.59287,-0.13198 2.33488,-0.1449 0.32538,2.40074 0.65077,4.80147 0.96169,7.32415 z"
       id="path158"
       style="stroke-width:0.264583" />
    <path
       fill="#c4d6de"
       opacity="1"
       stroke="none"
       d="m -14.894835,134.5503 c -1.05221,0.15069 -2.07781,0.18696 -3.22288,0.20355 -0.0304,-1.78943 0.0586,-3.55915 0.24761,-5.45323 0.17549,-0.17717 0.19948,-0.24756 0.1719,-0.33554 0,0 -0.0137,-0.0168 0.10622,-0.0276 1.14945,0.17347 2.17893,0.35773 3.20841,0.542 0.0133,0.11231 0.0267,0.22461 -0.0508,0.43552 -0.15172,0.16365 -0.16169,0.23573 -0.12073,0.31484 -0.10437,1.402 -0.20874,2.80401 -0.33973,4.32042 z"
       id="path160"
       style="stroke-width:0.264583" />
    <path
       fill="#a6bcc8"
       opacity="1"
       stroke="none"
       d="m 199.3798,131.77221 c -1.4785,-0.006 -2.98149,0.55676 -4.26841,-0.60637 -0.23108,-0.20885 -0.8921,0.0636 -1.35543,0.10456 -0.44496,0.0394 -0.89101,0.0668 -1.3779,-0.0885 0.0993,-0.88327 0.23988,-1.57852 0.38047,-2.27377 2.21446,-0.01 4.42894,-0.0193 6.75908,-0.0313 0.0513,0.93575 -0.0132,1.87378 -0.13781,2.89543 z"
       id="path162"
       style="stroke-width:0.264583" />
    <path
       fill="#cad6df"
       opacity="1"
       stroke="none"
       d="m 29.637915,110.40475 c -1.24984,-1.28364 -2.49967,-2.56728 -3.79393,-3.93753 1.412,0.64638 2.95517,1.24875 4.30359,2.14434 1.82203,1.21015 3.49442,2.64561 5.38946,4.10655 -2.07132,0 -3.79158,0 -5.55101,-0.18591 1.22762,-1.05104 0.47245,-1.59445 -0.34811,-2.12745 z"
       id="path164"
       style="stroke-width:0.264583" />
    <path
       fill="#526d87"
       opacity="1"
       stroke="none"
       d="m 45.793355,144.77006 c 0.48582,-2.15779 0.97163,-4.31557 1.5441,-6.54052 0.78269,0.62167 1.47875,1.3105 2.25666,2.01667 -0.29271,1.83016 -0.66725,3.64299 -1.19819,5.5262 -0.97178,-0.2872 -1.78718,-0.64478 -2.60257,-1.00235 z"
       id="path168"
       style="stroke-width:0.264583" />
    <path
       fill="#29405a"
       opacity="1"
       stroke="none"
       d="m 14.699745,163.01995 c 0.31978,0.20171 0.51375,0.38519 0.71614,0.55886 0.41175,0.35331 0.82804,0.70133 1.24247,1.05152 -0.38693,0.41603 -0.74519,0.86515 -1.17211,1.23502 -0.23639,0.20479 -0.58767,0.27697 -0.90749,0.49906 -1.35271,0.0966 -2.6851,0.10308 -4.12357,-0.003 0.9642,-1.18301 0.58026,-2.24261 -0.13023,-3.29973 1.4176,-0.0215 2.83519,-0.043 4.37479,-0.0419 z"
       id="path170"
       style="stroke-width:0.264583" />
    <path
       fill="#4a6781"
       opacity="1"
       stroke="none"
       d="m 20.123535,140.88241 c -0.15192,1.36079 -0.29722,2.65536 -0.55673,3.92662 -0.18374,0.90004 0.0265,2.17407 -1.63414,2.09953 -0.54635,-0.38877 -0.99329,-0.77571 -1.37199,-1.24452 0.25963,-0.40754 0.58784,-0.7207 0.61899,-1.06104 0.14374,-1.57041 0.20477,-3.14837 0.29544,-4.72363 1.06583,-0.24524 1.95029,0.0195 2.64843,1.00304 z"
       id="path172"
       style="stroke-width:0.264583" />
    <path
       fill="#38506b"
       opacity="1"
       stroke="none"
       d="m -21.950945,126.38428 c 0.0821,-0.23455 0.16302,-0.3641 0.36262,-0.55356 0.77522,0.46637 1.43171,0.99267 2.08821,1.51896 -0.2913,1.95113 -0.5826,3.90225 -0.8922,5.96473 -0.74914,-0.15728 -1.47997,-0.42591 -2.31955,-0.70097 0.18073,-2.04568 0.4702,-4.08492 0.76092,-6.22916 z"
       id="path174"
       style="stroke-width:0.264583" />
    <path
       fill="#35506a"
       opacity="1"
       stroke="none"
       d="m 33.651385,118.00389 c 0.20304,-0.11905 0.38692,-0.15331 0.66185,-0.0511 0.16862,1.08966 0.24621,2.04283 0.3238,2.996 -1.34607,1.57273 -2.69215,3.14545 -4.1203,4.64971 0.63287,-1.48293 -0.16067,-2.78664 -0.38043,-4.13248 1.16531,-1.12578 2.33061,-2.25157 3.51508,-3.46215 z"
       id="path176"
       style="stroke-width:0.264583" />
    <path
       fill="#35506a"
       opacity="1"
       stroke="none"
       d="m 5.1015946,148.40019 c 0.009,-1.67473 0.14698,-3.36649 0.17225,-5.05993 0.0142,-0.9478 -0.1578,-1.89839 -0.25089,-2.96337 0.72254,-0.26035 1.45007,-0.40505 2.2876,-0.40998 0.0344,0.82164 -0.11322,1.5047 -0.1019,2.18512 0.0235,1.41208 0.13133,2.82275 0.20449,4.234 -0.22295,0.23498 -0.4459,0.46997 -0.79339,0.77736 -0.19254,0.12451 -0.2399,0.19127 -0.26662,0.27267 -0.39013,0.31547 -0.78027,0.63093 -1.25154,0.96413 z"
       id="path178"
       style="stroke-width:0.264583" />
    <path
       fill="#3e5974"
       opacity="1"
       stroke="none"
       d="m -14.731425,148.03509 c 1.11768,-0.14137 1.10149,-0.98662 0.89403,-1.68557 -0.32718,-1.10232 -0.17194,-2.05797 0.48434,-3.05367 0.89624,1.41898 1.74691,2.88853 2.53428,4.39124 0.11312,0.21591 0.021,0.67441 -0.14794,0.87857 -0.58188,0.70339 -1.2399,1.3438 -2.09643,2.24852 -0.5957,-0.97138 -1.12248,-1.83037 -1.66828,-2.77909 z"
       id="path180"
       style="stroke-width:0.264583" />
    <path
       fill="#334b63"
       opacity="1"
       stroke="none"
       d="m 10.223005,163.02497 c 0.81244,1.09401 1.19638,2.15361 0.11047,3.3125 -1.2577704,-0.0737 -2.4999204,-0.2356 -3.8567804,-0.47135 -0.11471,-0.0738 -0.12171,-0.17835 -0.12172,-0.17835 -0.0265,-1.03167 -0.053,-2.06334 0.007,-3.16258 0.42075,-0.0282 0.75472,0.0112 1.18978,0.0401 0.10111,-0.0104 0.10458,-0.0174 0.14075,0.0308 0.0362,0.0482 0.14796,0.0816 0.14796,0.0816 0,0 0.10753,-0.0453 0.10753,-0.0453 0.72425,0.11856 1.44849,0.23711 2.2746904,0.39255 z"
       id="path182"
       style="stroke-width:0.264583" />
    <path
       fill="#4a6781"
       opacity="1"
       stroke="none"
       d="m 24.543205,126.60603 c 0.85532,2.0895 -0.3249,3.81695 -1.07054,5.63058 -0.1286,0.3128 -0.29678,0.60931 -0.44962,1.00536 -0.73544,0.1038 -1.46796,0.11557 -2.3177,0.0866 0.30504,-2.76321 2.05059,-4.71456 3.83786,-6.7225 z"
       id="path184"
       style="stroke-width:0.264583" />
    <path
       fill="#35506a"
       opacity="1"
       stroke="none"
       d="m 46.386995,126.92435 c -0.72933,0.12034 -1.47133,0.13326 -2.31879,0.14422 -0.37144,-0.74489 -0.63743,-1.48781 -0.93386,-2.36816 -0.0587,-0.18312 -0.0951,-0.22115 -0.13936,-0.25154 -0.11663,-0.31844 -0.23326,-0.63689 -0.38446,-1.08549 -0.06,-0.16919 -0.091,-0.20316 -0.1276,-0.23205 -0.0418,-0.12128 -0.0837,-0.24256 -0.0621,-0.51198 0.72053,-0.46666 1.37767,-0.78518 2.0348,-1.1037 0.63957,1.76709 1.27914,3.53418 1.93139,5.4087 z"
       id="path186"
       style="stroke-width:0.264583" />
    <path
       fill="#334b63"
       opacity="1"
       stroke="none"
       d="m -19.438825,127.27075 c -0.71779,-0.44736 -1.37428,-0.97366 -2.11873,-1.51185 0.52342,-1.68995 1.13478,-3.36799 1.89564,-4.99571 0.45284,0.19978 0.74175,0.41794 1.06234,0.48532 0.83188,0.17481 0.83387,0.67991 0.60916,1.31541 -0.46238,1.54263 -0.92475,3.08526 -1.44841,4.70683 z"
       id="path188"
       style="stroke-width:0.264583" />
    <path
       fill="#a9beca"
       opacity="1"
       stroke="none"
       d="m 78.091595,128.74925 c 2.09322,-0.0663 4.16527,-0.0229 6.36879,0.0593 0.14704,0.71767 0.16262,1.39644 0.1511,2.16911 -1.23263,-1.20396 -2.80686,-1.00405 -4.35004,-1.00908 -0.78613,-0.003 -1.23428,0.17844 -1.58015,0.99879 -0.24251,0.57522 -1.00682,0.93045 -1.63989,1.37855 0.27515,-1.16592 0.65209,-2.32648 1.05019,-3.59667 z"
       id="path190"
       style="stroke-width:0.264583" />
    <path
       fill="#3a546e"
       opacity="1"
       stroke="none"
       d="m 30.057985,121.50776 c 0.29808,1.30412 1.09162,2.60784 0.37463,4.11828 -0.73874,0.87492 -1.47543,1.65386 -2.29074,2.47124 -0.15634,-0.40389 -0.30836,-0.84812 -0.29707,-1.28816 0.0278,-1.08284 0.13069,-2.16376 0.19847,-3.35806 0.64219,-0.70893 1.28928,-1.30526 2.01471,-1.9433 z"
       id="path192"
       style="stroke-width:0.264583" />
    <path
       fill="#1e344b"
       opacity="1"
       stroke="none"
       d="m 17.606095,121.7627 c -0.61651,-0.003 -1.12397,-0.003 -1.63142,-0.003 -0.0764,-0.12902 -0.15269,-0.25804 -0.22904,-0.38707 1.35713,-1.5019 2.71425,-3.0038 4.08263,-4.51816 1.56567,1.5901 1.59084,1.61566 0.1625,3.02235 -0.69999,0.68937 -1.51349,1.2635 -2.38467,1.88633 z"
       id="path194"
       style="stroke-width:0.264583" />
    <path
       fill="#29405a"
       opacity="1"
       stroke="none"
       d="m 7.4819746,146.3695 c -0.14199,-1.39472 -0.24983,-2.80539 -0.27332,-4.21747 -0.0113,-0.68042 0.13627,-1.36348 0.2116,-2.15705 0.54126,-0.12858 1.08285,-0.14546 1.73769,-0.0171 0.023,1.79133 -0.0673,3.43746 -0.15757,5.08359 -0.22099,0.23663 -0.44197,0.47327 -0.78827,0.78024 -0.19356,0.12107 -0.24321,0.18604 -0.27426,0.26523 0,0 0.001,0.0143 -0.0543,0.032 -0.11807,0.054 -0.16576,0.10441 -0.19853,0.16894 -0.0447,0.0151 -0.0894,0.0301 -0.20302,0.0617 z"
       id="path196"
       style="stroke-width:0.264583" />
    <path
       fill="#f3f4f5"
       opacity="1"
       stroke="none"
       d="m 197.78371,156.06298 c -1.54889,0.22926 -3.05484,0.35042 -4.65695,0.47932 0,-0.81231 0,-1.45543 0,-2.20064 1.51213,0 3.0648,0 4.6999,0 0,0.56465 0,1.08893 -0.0429,1.72132 z"
       id="path198"
       style="stroke-width:0.264583" />
    <path
       fill="#192c3f"
       opacity="1"
       stroke="none"
       d="m -21.362605,148.59745 c 0.1678,-0.0235 0.35691,0.0429 0.44153,0.17577 1.24437,1.9542 2.47483,3.91725 3.71758,5.96873 -0.3064,0.46171 -0.62178,0.8329 -1.05967,1.34826 -1.57544,-2.40144 -3.6759,-4.30583 -3.09944,-7.49276 z"
       id="path200"
       style="stroke-width:0.264583" />
    <path
       fill="#2f4761"
       opacity="1"
       stroke="none"
       d="m 44.445905,121.42013 c -0.64743,0.41404 -1.30457,0.73256 -2.03658,1.1036 -0.3531,-0.43756 -0.63896,-0.92348 -0.90829,-1.4184 -1.36782,-2.51343 -1.46376,-1.83533 0.51113,-3.79891 0.86544,1.31946 1.64474,2.66882 2.43374,4.11371 z"
       id="path202"
       style="stroke-width:0.264583" />
    <path
       fill="#21354b"
       opacity="1"
       stroke="none"
       d="m 3.2614346,118.34084 c 0.99747,-1.58734 0.98978,-1.58048 2.19381,-0.23194 0.99499,1.11441 2.011,2.21005 3.03595,3.33404 -1.76203,0.76216 -3.86995,-0.48908 -5.22976,-3.1021 z"
       id="path204"
       style="stroke-width:0.264583" />
    <path
       fill="#2f4761"
       opacity="1"
       stroke="none"
       d="m 41.288495,154.69292 c 0.60505,-0.74028 1.32827,-1.34199 1.87627,-2.07474 0.85242,-1.13979 1.5857,-2.36868 2.45202,-3.58563 0.69934,2.99562 -1.31074,4.83504 -2.95059,6.97767 -0.51466,-0.47597 -0.92637,-0.85672 -1.3777,-1.3173 z"
       id="path206"
       style="stroke-width:0.264583" />
    <path
       fill="#1d3448"
       opacity="1"
       stroke="none"
       d="m 17.541375,152.39891 c -0.83596,-0.70759 -1.60625,-1.34837 -2.37654,-1.98916 0.10582,-0.13938 0.21165,-0.27876 0.31747,-0.41813 1.02691,-0.23509 2.03741,-0.43242 2.86913,0.59719 0.84351,1.04422 1.71347,2.06707 2.5543,3.07818 -0.49894,1.00201 -1.00841,1.18651 -1.72715,0.3839 -0.49573,-0.55358 -1.04577,-1.05852 -1.63721,-1.65198 z"
       id="path208"
       style="stroke-width:0.264583" />
    <path
       fill="#192c3f"
       opacity="1"
       stroke="none"
       d="m 32.802195,164.47056 c 1.1086,-1.11742 2.20705,-2.13971 3.37592,-3.21398 1.42405,1.04526 1.44461,1.38434 0.10305,2.3832 -1.42538,1.06129 -2.88469,2.07702 -4.4202,3.1298 -0.43809,-1.03969 0.44314,-1.53129 0.94123,-2.29902 z"
       id="path210"
       style="stroke-width:0.264583" />
    <path
       fill="#21354b"
       opacity="1"
       stroke="none"
       d="m 9.0846346,145.0297 c 0.006,-1.6144 0.0963,-3.26053 0.18593,-5.0226 0.18617,-0.12974 0.37298,-0.14355 0.69765,-0.0676 0.9987904,0.80238 1.8597204,1.515 2.7520204,2.29332 0.11089,0.18585 0.19041,0.30602 0.26992,0.42618 -0.89297,0.49126 -1.79672,0.96426 -2.67415,1.48187 -0.4086904,0.24109 -0.7663304,0.56871 -1.2313704,0.88883 z"
       id="path212"
       style="stroke-width:0.264583" />
    <path
       fill="#1d3448"
       opacity="1"
       stroke="none"
       d="m 5.7710846,151.08758 c 0.86183,-1.00454 1.79901,-1.52504 3.34409,-1.03812 -1.4069,1.51464 -2.68883,2.96078 -4.07068,4.30414 -0.18604,0.18086 -0.87526,-0.15588 -1.56613,-0.30287 0.90083,-1.17227 1.56268,-2.03355 2.29272,-2.96315 z"
       id="path214"
       style="stroke-width:0.264583" />
    <path
       fill="#f3f4f5"
       opacity="1"
       stroke="none"
       d="m 93.890975,156.40367 c -0.99833,1e-5 -1.87295,1e-5 -2.85419,1e-5 0,-0.69903 0,-1.36401 0,-2.13999 1.14379,0 2.27484,-0.005 3.4058,0.003 0.29692,0.002 0.59358,0.0418 0.95182,0.069 0,0.65372 0,1.24918 0,2.06793 -0.4647,0 -0.92221,0 -1.50343,1e-5 z"
       id="path216"
       style="stroke-width:0.264583" />
    <path
       fill="#5e7994"
       opacity="1"
       stroke="none"
       d="m 13.057415,142.71745 c -0.14677,-0.17861 -0.22629,-0.29877 -0.24823,-0.53643 0.18646,-0.85033 0.31534,-1.58318 0.44422,-2.31603 0.71226,-0.0155 1.42451,-0.0311 2.25192,0.0958 -8e-4,1.60851 -0.11666,3.07461 -0.23257,4.54071 -0.71603,-0.5752 -1.43206,-1.15041 -2.21534,-1.78406 z"
       id="path218"
       style="stroke-width:0.264583" />
    <path
       fill="#3a546e"
       opacity="1"
       stroke="none"
       d="m 36.953965,144.81584 c 0.003,1.47454 0.0283,2.95359 1.83638,3.68155 -0.34477,0.71837 -0.78517,1.43605 -1.24604,2.1871 -0.27047,-0.18344 -0.43587,-0.23291 -0.46214,-0.32297 -0.32136,-1.10145 -2.37298,-1.06439 -1.86343,-2.59046 0.34636,-1.03732 1.09058,-1.94179 1.73523,-2.95522 z"
       id="path220"
       style="stroke-width:0.264583" />
    <path
       fill="#526d87"
       opacity="1"
       stroke="none"
       d="m 15.295235,144.57496 c 0.0934,-1.53955 0.20933,-3.00565 0.32651,-4.58825 0.54293,-0.13088 1.0846,-0.14526 1.73981,-0.13349 0.0229,1.60141 -0.0382,3.17937 -0.18189,4.74978 -0.0311,0.34034 -0.35936,0.6535 -0.66053,0.98457 -0.47367,-0.30946 -0.83754,-0.6243 -1.2239,-1.01261 z"
       id="path222"
       style="stroke-width:0.264583" />
    <path
       fill="#29405a"
       opacity="1"
       stroke="none"
       d="m -17.901615,122.54085 c 0.13591,-0.61243 0.13392,-1.11753 -0.69796,-1.29234 -0.32059,-0.0674 -0.6095,-0.28554 -0.97016,-0.516 0.50648,-1.09716 1.07027,-2.11332 1.71676,-3.16088 1.79495,0.73787 2.01854,1.29099 1.21235,2.81338 -0.3796,0.71682 -0.78078,1.4222 -1.26099,2.15584 z"
       id="path224"
       style="stroke-width:0.264583" />
    <path
       fill="#eceeef"
       opacity="1"
       stroke="none"
       d="m 22.103275,161.02601 c -0.28651,-0.44333 -0.47652,-0.90723 -0.66809,-1.46474 1.43515,-0.824 2.87187,-1.55439 4.41841,-2.21846 0.15047,0.12513 0.20649,0.15616 0.2779,0.15941 0,0 0.068,0.10071 0.0807,0.2629 0.14458,0.30363 0.2765,0.44508 0.40841,0.58653 -1.4736,0.88459 -2.94721,1.76918 -4.51732,2.67436 z"
       id="path226"
       style="stroke-width:0.264583" />
    <path
       fill="#8ca4b2"
       opacity="1"
       stroke="none"
       d="m -14.335035,129.38948 c -1.07802,-0.0942 -2.1075,-0.2785 -3.24659,-0.45516 -0.0279,-0.39587 0.0539,-0.79934 0.18588,-1.27459 0.0931,-0.0616 0.13686,-0.0544 0.17856,-0.0408 2.34231,0.7646 2.44006,0.79198 3.08575,-1.51745 0.29068,-1.03968 0.82617,-1.21158 1.79342,-1.17108 -0.57819,1.45813 -1.26333,2.91359 -1.99702,4.45909 z"
       id="path228"
       style="stroke-width:0.264583" />
    <path
       fill="#eceeef"
       opacity="1"
       stroke="none"
       d="m 40.195005,123.0119 c -1.21769,0.35444 -2.44339,0.61435 -3.78022,0.87153 0.13221,-0.56157 0.27728,-1.19839 0.64339,-1.65984 0.47259,-0.59564 1.12195,-1.05104 1.81635,-1.67586 0.42905,0.77462 0.87076,1.57213 1.32048,2.46417 z"
       id="path230"
       style="stroke-width:0.264583" />
    <path
       fill="#192e42"
       opacity="1"
       stroke="none"
       d="m -2.6330454,136.19946 c -0.002,-1.02477 -0.002,-1.93439 -0.002,-3.22242 1.09962,0.94558 1.95270002,1.67917 2.99761002,2.57771 -0.79078,0.74114 -1.54819002,1.45102 -2.50165002,2.34465 -0.22251,-0.71804 -0.3568,-1.15142 -0.49353,-1.69994 z"
       id="path232"
       style="stroke-width:0.264583" />
    <path
       fill="#1d3448"
       opacity="1"
       stroke="none"
       d="m 26.989705,135.98633 c -0.10042,0.60734 -0.19696,1.09839 -0.33229,1.78676 -0.79552,-0.6364 -1.44363,-1.07325 -1.97279,-1.62432 -0.17528,-0.18254 -0.18392,-0.75377 -0.0278,-0.98384 0.51106,-0.75327 1.13299,-1.43133 1.7123,-2.1383 0.20816,0.10059 0.41631,0.20118 0.62447,0.30177 0,0.84722 0,1.69443 -0.004,2.65793 z"
       id="path234"
       style="stroke-width:0.264583" />
    <path
       fill="#1d3149"
       opacity="1"
       stroke="none"
       d="m -23.473975,146.18377 c 0.57127,-0.50983 1.21286,-0.943 1.94168,-1.40426 0.95449,-0.19611 1.82176,-0.36412 2.70034,-0.62773 0.17082,0.18936 0.33032,0.47433 0.50045,0.84653 -0.94234,0.60966 -1.8953,1.13209 -2.94117,1.65901 -0.77226,-0.1293 -1.45162,-0.2631 -2.2013,-0.47355 z"
       id="path236"
       style="stroke-width:0.264583" />
    <path
       fill="#9eb3bf"
       opacity="1"
       stroke="none"
       d="m 35.237225,125.88227 c -0.39674,0.41836 -0.80889,0.73952 -1.28228,1.12383 -0.34638,-0.47327 -0.57797,-1.04789 -0.92763,-1.53831 -0.75774,-1.06276 -0.36856,-1.75244 0.82252,-2.46421 0.47504,0.96307 0.92351,1.87228 1.38739,2.87869 z"
       id="path238"
       style="stroke-width:0.264583" />
    <path
       fill="#29405a"
       opacity="1"
       stroke="none"
       d="m 45.675355,144.78001 c 0.93339,0.34762 1.74879,0.7052 2.65989,1.07418 -0.24485,0.17821 -0.56986,0.41487 -0.92971,0.49493 -0.50088,0.11143 -1.02785,0.1056 -1.61807,0.23711 -0.95475,-0.43834 -1.83509,-0.96383 -2.8055,-1.49877 -0.0617,-0.16118 -0.0333,-0.31293 0.0578,-0.51125 0.88101,0.0402 1.69928,0.12697 2.63556,0.2038 z"
       id="path240"
       style="stroke-width:0.264583" />
    <path
       fill="#283f58"
       opacity="1"
       stroke="none"
       d="m 34.720815,120.92121 c -0.16137,-0.92556 -0.23896,-1.87874 -0.31582,-2.94883 0.89709,-0.13532 1.79344,-0.15373 2.81121,-0.14814 -0.72294,1.03912 -1.56728,2.05425 -2.49539,3.09697 z"
       id="path242"
       style="stroke-width:0.264583" />
    <path
       fill="#d1dfe7"
       opacity="1"
       stroke="none"
       d="m -9.4669754,146.07148 c -0.22106,-0.43028 -0.41183,-0.76803 -0.6556096,-1.19961 0.4467796,-0.30428 0.8574296,-0.58395 1.5234796,-1.03756 0.21641,0.56444 0.66285,1.1753 0.50847,1.45768 -0.22419,0.41008 -0.34779,1.48271 -1.37634,0.77949 z"
       id="path244"
       style="stroke-width:0.264583" />
    <path
       fill="#a5bcca"
       opacity="1"
       stroke="none"
       d="m 166.81951,131.00625 c -0.34334,-0.30089 -0.83879,-0.65716 -0.83312,-1.00528 0.0128,-0.7837 0.67301,-0.87802 1.443,-0.79782 -0.10392,0.58751 -0.31923,1.16947 -0.60988,1.8031 z"
       id="path246"
       style="stroke-width:0.264583" />
    <path
       fill="#95adbc"
       opacity="1"
       stroke="none"
       d="m 29.635445,110.50842 c 0.82303,0.42933 1.5782,0.97274 0.28907,1.9276 -0.17788,-0.0315 -0.33343,-0.15272 -0.52766,-0.33924 0.0529,-0.53843 0.14452,-1.01155 0.23859,-1.58836 z"
       id="path248"
       style="stroke-width:0.264583" />
    <path
       fill="#8ca4b2"
       opacity="1"
       stroke="none"
       d="m -18.846385,115.62714 c -0.2604,0.0189 -0.53633,-0.0477 -0.89089,-0.15007 0.19515,-0.7099 0.25831,-0.70326 0.89089,0.15007 z"
       id="path250"
       style="stroke-width:0.264583" />
    <path
       fill="#273e57"
       opacity="1"
       stroke="none"
       d="m -2.0314454,104.53061 c 0.22556,-0.21776 0.53954,-0.42745 0.90731,-0.58222 -0.23711,0.23337 -0.52801,0.41184 -0.90731,0.58222 z"
       id="path252"
       style="stroke-width:0.264583" />
    <path
       fill="#38506b"
       opacity="1"
       stroke="none"
       d="m -20.152155,137.30173 c -0.13361,-0.22533 -0.24065,-0.54376 -0.27759,-0.91742 0.14811,0.23796 0.22613,0.53115 0.27759,0.91742 z"
       id="path254"
       style="stroke-width:0.264583" />
    <path
       fill="#3a546e"
       opacity="1"
       stroke="none"
       d="m 39.357505,135.86041 c 0.0587,0.19446 0.0532,0.44901 -0.0303,0.72263 -0.0633,-0.20813 -0.0486,-0.43533 0.0303,-0.72263 z"
       id="path256"
       style="stroke-width:0.264583" />
    <path
       fill="#cad6df"
       opacity="1"
       stroke="none"
       d="m 26.668455,158.33759 c -0.17977,-0.12739 -0.31169,-0.26884 -0.4484,-0.51221 0.20473,0.0315 0.41426,0.16491 0.64881,0.37041 0.025,0.0721 -0.0746,0.0653 -0.0746,0.0653 0,0 -0.0779,0.0625 -0.12579,0.0765 z"
       id="path258"
       style="stroke-width:0.264583" />
    <path
       fill="#273e57"
       opacity="1"
       stroke="none"
       d="m 25.950525,104.14058 c 0.21738,0.0173 0.47915,0.1068 0.7633,0.27968 -0.22471,-0.0136 -0.47181,-0.11056 -0.7633,-0.27968 z"
       id="path260"
       style="stroke-width:0.264583" />
    <path
       fill="#8ca4b2"
       opacity="1"
       stroke="none"
       d="m -23.266715,122.10974 c 0.037,0.12182 0.0113,0.28872 -0.0796,0.46744 -0.0378,-0.13291 -0.0105,-0.27762 0.0796,-0.46744 z"
       id="path266"
       style="stroke-width:0.264583" />
    <path
       fill="#3a546e"
       opacity="1"
       stroke="none"
       d="m 44.621725,137.69086 c 0.0544,0.12272 0.052,0.29689 -0.0238,0.48495 -0.0599,-0.13524 -0.0465,-0.28437 0.0238,-0.48495 z"
       id="path268"
       style="stroke-width:0.264583" />
    <path
       fill="#9eb3bf"
       opacity="1"
       stroke="none"
       d="m 92.685405,128.19695 c 0.0966,0.0439 0.14954,0.17488 0.20724,0.38073 0.005,0.0749 -0.0968,0.0835 -0.1477,0.0854 -0.0683,-0.12509 -0.0857,-0.25208 -0.0595,-0.46613 z"
       id="path272"
       style="stroke-width:0.264583" />
    <path
       fill="#3a546e"
       opacity="1"
       stroke="none"
       d="m 39.082105,138.1919 c 0.0403,0.0977 0.0189,0.24585 -0.0538,0.44887 -0.0368,-0.0962 -0.0224,-0.24735 0.0538,-0.44887 z"
       id="path274"
       style="stroke-width:0.264583" />
    <path
       fill="#cad6df"
       opacity="1"
       stroke="none"
       d="m 26.147665,157.43478 c -0.0876,0.0642 -0.1436,0.0332 -0.19934,-0.0728 0.0618,-0.0297 0.13864,-0.0121 0.19934,0.0728 z"
       id="path276"
       style="stroke-width:0.264583" />
    <path
       fill="#a9beca"
       opacity="1"
       stroke="none"
       d="m 16.899415,160.83255 c 0.0462,0.0996 -0.001,0.14998 -0.14611,0.1392 -0.0248,-0.0872 0.0249,-0.12963 0.14611,-0.1392 z"
       id="path278"
       style="stroke-width:0.264583" />
    <path
       fill="#a9beca"
       opacity="1"
       stroke="none"
       d="m 15.303615,161.11692 c 0.0344,0.1056 -0.0121,0.14707 -0.14107,0.12377 -0.0238,-0.0943 0.0238,-0.13536 0.14107,-0.12377 z"
       id="path280"
       style="stroke-width:0.264583" />
    <path
       fill="#a9beca"
       opacity="1"
       stroke="none"
       d="m 19.021595,160.28714 c 0.0673,0.0844 0.0336,0.1439 -0.108,0.16242 -0.0437,-0.081 -0.005,-0.12977 0.108,-0.16242 z"
       id="path282"
       style="stroke-width:0.264583" />
    <path
       fill="#273e57"
       opacity="1"
       stroke="none"
       d="m 0.06300462,163.8872 c 0.0435,-0.0321 0.0964,-0.002 0.17176,0.0744 0.0291,0.0343 -0.0754,0.0438 -0.0754,0.0438 0,0 -0.0802,-0.0678 -0.0963,-0.11826 z"
       id="path284"
       style="stroke-width:0.264583" />
    <path
       fill="#273e57"
       opacity="1"
       stroke="none"
       d="m 3.4997946,165.2121 c 0.0454,-0.0322 0.10015,-9e-5 0.1768,0.0817 0.0294,0.0368 -0.0783,0.0403 -0.0783,0.0403 0,0 -0.0816,-0.0704 -0.0985,-0.12196 z"
       id="path286"
       style="stroke-width:0.264583" />
    <path
       fill="#273e57"
       opacity="1"
       stroke="none"
       d="m 6.2766646,165.6961 c 0.0783,-0.008 0.0853,0.0962 0.089,0.1481 -0.0864,0.0661 -0.16663,0.0441 -0.27949,-0.062 0.009,-0.0579 0.0606,-0.0678 0.19045,-0.0861 z"
       id="path288"
       style="stroke-width:0.264583" />
    <path
       fill="#283f58"
       opacity="1"
       stroke="none"
       d="m 23.748575,166.33972 c 0.0179,0.0524 -0.0245,0.0934 -0.11774,0.14321 -0.0321,-0.0535 0.004,-0.10788 0.11774,-0.14321 z"
       id="path290"
       style="stroke-width:0.264583" />
    <path
       fill="#8ca4b2"
       opacity="1"
       stroke="none"
       d="m -17.749285,128.98688 c 0.0787,0.0662 0.0547,0.13657 -0.0786,0.20332 -0.067,-0.0677 -0.0386,-0.13283 0.0786,-0.20332 z"
       id="path292"
       style="stroke-width:0.264583" />
    <path
       fill="#273e57"
       opacity="1"
       stroke="none"
       d="m 22.277115,102.77228 c 0.0444,-0.0298 0.0994,0.004 0.17569,0.0874 -0.0519,0.0598 -0.11402,0.035 -0.17569,-0.0874 z"
       id="path294"
       style="stroke-width:0.264583" />
    <path
       fill="#273e57"
       opacity="1"
       stroke="none"
       d="m 23.086065,103.03348 c 0.0404,-0.0266 0.0885,0.004 0.15756,0.0751 0.0266,0.0321 -0.0716,0.0392 -0.0716,0.0392 0,0 -0.0727,-0.0664 -0.086,-0.11433 z"
       id="path296"
       style="stroke-width:0.264583" />
    <path
       fill="#8ca4b2"
       opacity="1"
       stroke="none"
       d="m -21.181235,117.64272 c 0.0397,-0.002 0.0128,0.0825 -10e-4,0.0995 -0.0142,0.017 -0.078,-0.0292 -0.078,-0.0292 0,0 0.0398,-0.068 0.0795,-0.0703 z"
       id="path298"
       style="stroke-width:0.264583" />
    <path
       fill="#9eb3bf"
       opacity="1"
       stroke="none"
       d="m 92.847055,117.7997 c -0.004,0.0398 -0.0117,0.041 -0.0141,0.0437 -0.002,0.003 -0.0707,-0.0518 -0.0707,-0.0518 0,0 0.0891,-0.0317 0.0847,0.008 z"
       id="path300"
       style="stroke-width:0.264583" />
    <path
       fill="#a9beca"
       opacity="1"
       stroke="none"
       d="m 78.230685,117.78778 c 0.0785,0.0969 0.0416,0.17306 -0.08,0.26855 -0.0389,-0.0693 -0.0225,-0.1722 0.08,-0.26855 z"
       id="path302"
       style="stroke-width:0.264583" />
    <path
       fill="#dfe7ed"
       opacity="1"
       stroke="none"
       d="m 144.92001,117.80667 c 0.0708,0.0935 0.036,0.1623 -0.0787,0.24411 -0.0349,-0.0671 -0.0172,-0.16099 0.0787,-0.24411 z"
       id="path304"
       style="stroke-width:0.264583" />
    <path
       fill="#8ca4b2"
       opacity="1"
       stroke="none"
       d="m -21.438145,118.22391 c 0.0296,0.007 0.0147,0.0173 0.017,0.0196 0.002,0.002 -0.0466,-0.0269 -0.017,-0.0196 z"
       id="path306"
       style="stroke-width:0.264583" />
    <path
       fill="#8ca4b2"
       opacity="1"
       stroke="none"
       d="m -21.707015,118.71103 c 0.0358,-10e-4 0.0114,0.0743 -0.001,0.0892 -0.0128,0.015 -0.0698,-0.0269 -0.0698,-0.0269 0,0 0.0355,-0.0613 0.0713,-0.0623 z"
       id="path308"
       style="stroke-width:0.264583" />
    <path
       fill="#8ca4b2"
       opacity="1"
       stroke="none"
       d="m -21.967995,119.2495 c 0.0323,1e-5 0.0145,0.0595 0.005,0.0715 -0.01,0.012 -0.0371,-0.0715 -0.005,-0.0715 z"
       id="path310"
       style="stroke-width:0.264583" />
    <path
       fill="#2f4761"
       opacity="1"
       stroke="none"
       d="m 42.472675,123.17441 c 0.0468,-0.0142 0.0778,0.0198 0.12161,0.0882 -0.0497,0.0406 -0.0998,0.0158 -0.12161,-0.0882 z"
       id="path312"
       style="stroke-width:0.264583" />
    <path
       fill="#526d87"
       opacity="1"
       stroke="none"
       d="m 115.39927,123.92993 c 0.056,-0.0506 0.10346,-0.0412 0.20567,0.0157 -0.0349,0.0464 -0.12462,0.0453 -0.20567,-0.0157 z"
       id="path314"
       style="stroke-width:0.264583" />
    <path
       fill="#2f4761"
       opacity="1"
       stroke="none"
       d="m 42.991305,124.49522 c 0.048,-0.016 0.0843,0.0221 0.13166,0.1026 -0.0506,0.0351 -0.10201,0.005 -0.13166,-0.1026 z"
       id="path318"
       style="stroke-width:0.264583" />
    <path
       fill="#a3bcc9"
       opacity="1"
       stroke="none"
       d="m 174.83296,127.61247 c 0.10234,0.0198 0.11714,0.0906 0.0426,0.21066 -0.10968,-0.0198 -0.12328,-0.0894 -0.0426,-0.21066 z"
       id="path320"
       style="stroke-width:0.264583" />
    <path
       fill="#3e5974"
       opacity="1"
       stroke="none"
       d="m -14.951105,147.77192 c 0.052,-0.0197 0.0888,0.0168 0.13786,0.0946 -0.0547,0.0473 -0.10973,0.0207 -0.13786,-0.0946 z"
       id="path322"
       style="stroke-width:0.264583" />
    <path
       fill="#3a546e"
       opacity="1"
       stroke="none"
       d="m 27.320725,129.16247 c -0.0371,-0.0667 0.012,-0.13296 0.13782,-0.21195 0.0132,0.047 -0.0295,0.12202 -0.13782,0.21195 z"
       id="path324"
       style="stroke-width:0.264583" />
    <path
       fill="#8ca4b2"
       opacity="1"
       stroke="none"
       d="m -14.509455,130.20016 c -0.0866,-0.0494 -0.0766,-0.12148 0.0376,-0.20886 0.083,0.0549 0.0678,0.12204 -0.0376,0.20886 z"
       id="path326"
       style="stroke-width:0.264583" />
    <path
       fill="#3a546e"
       opacity="1"
       stroke="none"
       d="m 44.412915,139.5513 c 0.0322,0.043 0.001,0.0989 -0.082,0.17581 -0.0586,-0.0495 -0.0349,-0.11082 0.082,-0.17581 z"
       id="path328"
       style="stroke-width:0.264583" />
    <path
       fill="#3a546e"
       opacity="1"
       stroke="none"
       d="m 44.152595,140.88595 c 0.028,0.041 -0.003,0.0927 -0.0815,0.16451 -0.0536,-0.0473 -0.0302,-0.10533 0.0815,-0.16451 z"
       id="path330"
       style="stroke-width:0.264583" />
    <path
       fill="#526d87"
       opacity="1"
       stroke="none"
       d="m 123.18442,140.84398 c 0.0899,-0.0469 0.13462,-0.0129 0.15664,0.0944 -5.3e-4,0.0442 -0.11357,0.049 -0.11357,0.049 0,0 -0.0661,-0.0918 -0.0431,-0.14346 z"
       id="path332"
       style="stroke-width:0.264583" />
    <path
       fill="#3a546e"
       opacity="1"
       stroke="none"
       d="m 37.280965,144.08923 c 0.0427,-0.003 -0.0209,0.0961 -0.0387,0.11795 -0.0178,0.0218 -0.0595,-0.0513 -0.0595,-0.0513 0,0 0.0555,-0.0634 0.0982,-0.0666 z"
       id="path334"
       style="stroke-width:0.264583" />
    <path
       fill="#3a546e"
       opacity="1"
       stroke="none"
       d="m 41.048575,144.19804 c -0.0245,-0.0348 7.9e-4,-0.0762 0.0573,-0.13862 0.0644,0.0395 0.0515,0.0906 -0.0573,0.13862 z"
       id="path336"
       style="stroke-width:0.264583" />
    <path
       fill="#1d3149"
       opacity="1"
       stroke="none"
       d="m -18.063915,145.53685 c -0.0543,0.0245 -0.10727,-0.0208 -0.17143,-0.128 0.0566,-0.0364 0.11795,0.004 0.17143,0.128 z"
       id="path338"
       style="stroke-width:0.264583" />
    <path
       fill="#21354b"
       opacity="1"
       stroke="none"
       d="m 8.0009546,146.08915 c -0.0321,-0.0614 0.0176,-0.12641 0.14066,-0.20599 0.047,0.0657 0.003,0.13805 -0.14066,0.20599 z"
       id="path340"
       style="stroke-width:0.264583" />
    <path
       fill="#21354b"
       opacity="1"
       stroke="none"
       d="m 7.7397546,146.29913 c -0.022,-0.0558 0.0257,-0.10623 0.13714,-0.163 0.0285,0.0554 -0.0152,0.11367 -0.13714,0.163 z"
       id="path342"
       style="stroke-width:0.264583" />
    <path
       fill="#3e5974"
       opacity="1"
       stroke="none"
       d="m -15.500275,146.70785 c 0.0492,-0.0229 0.0947,0.0159 0.15131,0.10645 -0.0521,0.0388 -0.1075,0.007 -0.15131,-0.10645 z"
       id="path344"
       style="stroke-width:0.264583" />
    <path
       fill="#29405a"
       opacity="1"
       stroke="none"
       d="m 6.4164746,147.41732 c -0.0366,-0.0627 0.0108,-0.12942 0.13314,-0.2114 0.0533,0.0668 0.0118,0.14097 -0.13314,0.2114 z"
       id="path346"
       style="stroke-width:0.264583" />
    <path
       fill="#3a546e"
       opacity="1"
       stroke="none"
       d="m 39.461735,147.63018 c -0.0221,-0.0369 0.006,-0.0779 0.0681,-0.13835 0.0572,0.0433 0.0399,0.0946 -0.0681,0.13835 z"
       id="path348"
       style="stroke-width:0.264583" />
    <path
       fill="#dfe7ed"
       opacity="1"
       stroke="none"
       d="m 151.8742,128.47844 c 2.47886,-0.0796 4.95674,-0.0778 7.55839,-0.0606 0.12575,0.11207 0.12779,0.20882 0.13617,0.37716 -2.48289,0.0886 -4.97214,0.10568 -7.58639,0.10586 -0.11971,-0.12491 -0.11441,-0.23297 -0.10817,-0.42242 z"
       id="path352"
       style="stroke-width:0.264583" />
    <path
       fill="#9eb3bf"
       opacity="1"
       stroke="none"
       d="m 96.379405,128.99108 c 0.73288,-0.0846 1.53968,-0.0905 2.46732,-0.0873 -0.71724,0.0614 -1.55532,0.11366 -2.46732,0.0873 z"
       id="path356"
       style="stroke-width:0.264583" />
    <path
       fill="#7692a6"
       opacity="1"
       stroke="none"
       d="m 13.132005,139.83828 c -0.007,0.75956 -0.13636,1.49241 -0.35419,2.27705 -0.94988,-0.66082 -1.81081,-1.37344 -2.71671,-2.15796 0.95319,-0.0965 1.95134,-0.12116 3.0709,-0.11909 z"
       id="path358"
       style="stroke-width:0.264583" />
    <path
       fill="#b9c6d7"
       opacity="1"
       stroke="none"
       d="m 7.9094046,162.59231 c 0.0389,0.0401 -0.0686,0.0854 -0.0686,0.0854 0,0 -0.11178,-0.0334 -0.14904,-0.0784 0.0344,-0.0849 0.10636,-0.0856 0.21766,-0.007 z"
       id="path362"
       style="stroke-width:0.264583" />
  </g>
</svg>
